<svg id="Capa_1" data-name="Capa 1" xmlns="http://www.w3.org/2000/svg" xmlns:xlink="http://www.w3.org/1999/xlink" viewBox="0 0 3223.33 897.69"><defs><style>.cls-1{fill:none;stroke:#000;stroke-linecap:round;stroke-width:4px;stroke-dasharray:0 10;}.cls-1,.cls-10,.cls-11,.cls-23,.cls-24{stroke-miterlimit:10;}.cls-2{fill:url(#Degradado_sin_nombre);}.cls-3{fill:url(#Degradado_sin_nombre_2);}.cls-12,.cls-14,.cls-15,.cls-4{fill:#373e48;}.cls-5{fill:#ff4d14;}.cls-6{fill:#e84215;}.cls-7{fill:#aa3111;}.cls-8{fill:#0c0c0c;}.cls-9{fill:#232323;}.cls-10,.cls-13{fill:#fff;}.cls-10{stroke:#d8d2c6;stroke-width:3px;}.cls-11,.cls-17,.cls-22,.cls-23,.cls-24{fill:#98999d;}.cls-11,.cls-23,.cls-24{stroke:#fff;}.cls-11{opacity:0.95;}.cls-11,.cls-12,.cls-14,.cls-15,.cls-21,.cls-22{isolation:isolate;}.cls-12{opacity:0.8;}.cls-14,.cls-21,.cls-22{opacity:0.5;}.cls-15{opacity:0.2;}.cls-16{fill:#d8d2c6;}.cls-18{fill:url(#Degradado_sin_nombre_3);}.cls-19{fill:url(#Degradado_sin_nombre_4);}.cls-20{fill:url(#Degradado_sin_nombre_5);}.cls-21{fill:#ddd;}.cls-23{stroke-width:0.75px;}.cls-25{fill:url(#Degradado_sin_nombre_6);}.cls-26{fill:#af3215;}</style><linearGradient id="Degradado_sin_nombre" x1="167.44" y1="394.67" x2="580.67" y2="394.67" gradientTransform="matrix(1, 0, 0, -1, 0, 900)" gradientUnits="userSpaceOnUse"><stop offset="0" stop-color="#98999d"/><stop offset="0.22" stop-color="#98999d"/><stop offset="0.44" stop-color="#9c9da1"/><stop offset="1" stop-color="#eaeaeb"/></linearGradient><linearGradient id="Degradado_sin_nombre_2" x1="170.3" y1="403.68" x2="578.9" y2="403.68" gradientTransform="matrix(1, 0, 0, -1, 0, 900)" gradientUnits="userSpaceOnUse"><stop offset="0" stop-color="#fff"/><stop offset="0.22" stop-color="#fbfbfb"/><stop offset="1" stop-color="#98999d"/></linearGradient><linearGradient id="Degradado_sin_nombre_3" x1="696.83" y1="355.14" x2="696.83" y2="494.05" gradientTransform="matrix(1, 0, 0, -1, 0, 900)" gradientUnits="userSpaceOnUse"><stop offset="0" stop-color="#a5a7ab"/><stop offset="0.98" stop-color="#fff" stop-opacity="0"/></linearGradient><linearGradient id="Degradado_sin_nombre_4" x1="636.1" y1="280.54" x2="636.1" y2="339.08" gradientTransform="matrix(1, 0, 0, -1, 0, 900)" gradientUnits="userSpaceOnUse"><stop offset="0" stop-color="#adb0b3"/><stop offset="0.98" stop-color="#fff" stop-opacity="0"/></linearGradient><linearGradient id="Degradado_sin_nombre_5" x1="459.66" y1="216.04" x2="459.66" y2="361.9" gradientTransform="matrix(1, 0, 0, -1, 0, 900)" gradientUnits="userSpaceOnUse"><stop offset="0" stop-color="#fff"/><stop offset="0.98" stop-color="#fff" stop-opacity="0"/></linearGradient><linearGradient id="Degradado_sin_nombre_6" x1="600.49" y1="336.73" x2="600.49" y2="395.26" xlink:href="#Degradado_sin_nombre_4"/></defs><title>LandingPage</title><ellipse class="cls-1" cx="328.62" cy="620.85" rx="165.09" ry="94.88"/><path class="cls-2" d="M578,489.24,340.19,621.79a16.16,16.16,0,0,1-16.38-.53l-154.15-99.5c-3.45-2.18-2.68-9,.89-11l241-122.69a9.86,9.86,0,0,1,9.79.25L577.1,474.84C581.13,477.37,582.18,487,578,489.24Z" transform="translate(0.58 -1)"/><path class="cls-3" d="M575.7,484,339.9,612.78a16.13,16.13,0,0,1-16.38-.53L172.79,516.8a5.35,5.35,0,0,1,.28-9.22L411.3,379.06a9.84,9.84,0,0,1,9.79.25L576,473.3a6.22,6.22,0,0,1-.3,10.7Z" transform="translate(0.58 -1)"/><path class="cls-4" d="M400.36,382.42l-230.21,127c-2.54,1.36-9.56-3.66-9.5-6.53L164.21,318c0-1.4,1.92-5.84,4.84-8.17L408.51,180.13c3.7-2,12.71,4.46,11.45,10.78l-8.95,174A20.17,20.17,0,0,1,400.36,382.42Z" transform="translate(0.58 -1)"/><polygon class="cls-5" points="492.13 245.55 511.98 234.05 528.49 244.05 509.48 255.56 492.13 245.55"/><polygon class="cls-6" points="492.13 245.55 492.13 376.63 509.48 386.8 509.64 255.56 492.13 245.55"/><polygon class="cls-7" points="528.49 244.05 529.32 286.3 525.15 289.3 525.15 377.85 509.48 386.8 509.64 255.56 528.49 244.05"/><polygon points="525.15 289.3 544.16 277.74 561.34 287.74 542.33 299.08 525.15 289.3"/><polygon class="cls-8" points="524.98 395.63 525.15 289.3 542.33 299.08 541.66 404.97 524.98 395.63"/><polygon class="cls-9" points="561.34 287.74 561.59 367.14 557.08 369.87 557 396.47 541.66 404.97 542.33 299.08 561.34 287.74"/><polygon class="cls-5" points="557.08 369.87 576.72 357.87 589.77 365.37 589.85 370.62 574.09 379.5 557.08 369.87"/><polygon class="cls-6" points="556.92 414.23 557.08 369.87 574.09 379.5 573.76 424.4 556.92 414.23"/><polygon class="cls-7" points="573.76 424.4 589.77 415.6 589.85 370.62 574.09 379.5 573.76 424.4"/><polygon points="589.92 351.22 606.36 360.89 626.14 349.57 609.25 339.66 589.92 351.22"/><polygon class="cls-9" points="626.14 349.57 626.54 430.32 606.86 442.83 606.36 360.89 626.14 349.57"/><polyline class="cls-8" points="606.36 360.89 589.92 351.22 589.35 433.32 606.86 442.83"/><polygon class="cls-5" points="638.99 442.55 658.67 431.27 641.77 421.09 622.2 433.04 638.99 442.55"/><polygon class="cls-6" points="638.99 442.55 639.16 461.56 621.87 451.72 622.2 433.04 638.99 442.55"/><polyline class="cls-7" points="638.99 442.55 658.67 431.27 658.67 450.5 639.16 461.56"/><ellipse class="cls-5" cx="539.66" cy="556.31" rx="6.67" ry="5.09"/><ellipse cx="572.36" cy="537.86" rx="6.67" ry="5.09"/><ellipse class="cls-5" cx="604.27" cy="518.63" rx="6.67" ry="5.09"/><ellipse cx="637.54" cy="500.11" rx="6.67" ry="5.09"/><ellipse cx="572.69" cy="575.17" rx="6.67" ry="5.09"/><ellipse cx="637.42" cy="537.78" rx="6.67" ry="5.09"/><ellipse class="cls-5" cx="669.73" cy="518.55" rx="6.67" ry="5.09"/><ellipse class="cls-5" cx="604.47" cy="594.27" rx="6.67" ry="5.09"/><ellipse cx="637.06" cy="575.58" rx="6.67" ry="5.09"/><ellipse class="cls-5" cx="670.14" cy="556.57" rx="6.67" ry="5.09"/><ellipse cx="704.67" cy="575.2" rx="6.67" ry="5.09"/><ellipse class="cls-5" cx="669.96" cy="594.67" rx="6.67" ry="5.09"/><polygon points="0.39 330.28 126.49 220.28 148.5 233.63 104.92 259.19 0 392.76 0.52 398.29 105.81 262.98 174.29 222.95 194.97 234.51 221.65 219.84 257.36 239.8 302.58 213.84 322.15 224.29 339.94 214.06 340.38 209.39 323.48 219.17 303.91 208.28 258.78 234.74 227.21 216.28 344.38 148.47 344.6 144.24 264.12 191.16 298.36 131.79 337.93 108.89 337.71 105.11 297.02 128.68 259.45 192.94 197.19 229.4 176.51 217.84 154.5 230.51 127.38 215.17 0.92 325.81 0.39 330.28"/><rect x="235.14" y="163.56" width="23.79" height="8.12" rx="3.99" transform="translate(-50.14 144.97) rotate(-30)"/><rect x="184.55" y="192.4" width="77.42" height="8.12" rx="3.99" transform="translate(-67.74 136.95) rotate(-30)"/><rect x="108.55" y="179.57" width="23.79" height="8.12" rx="3.99" transform="translate(-75.1 83.82) rotate(-30)"/><rect x="78.33" y="203.54" width="56.16" height="8.12" rx="3.99" transform="translate(-88.96 80.02) rotate(-30)"/><polygon points="0.26 253.99 125.55 335.32 145.22 301.64 206.92 265.84 226.05 276.74 221.27 279.63 206.04 270.62 147.45 304.86 128.55 337.1 160.12 355.45 164.01 353.89 164.12 357.89 159.68 360.56 147.45 353.56 118.32 403.92 0.82 469.82 0.72 465.67 115.99 400.36 144.11 352.22 0.52 260.3 0.26 253.99"/><ellipse class="cls-10" cx="460.45" cy="673.78" rx="71.87" ry="42.02"/><path class="cls-11" d="M404.92,383.06,170.15,509.39a3.76,3.76,0,0,1-5.1-1.52,3.8,3.8,0,0,1-.45-1.87l4.09-184.23c0-1.4-.34-5.34,2.58-7.67L410.68,183.24c3.7-2,9.23,2.82,9.18,7l-4.29,175.29A20.2,20.2,0,0,1,404.92,383.06Z" transform="translate(0.58 -1)"/><path class="cls-12" d="M402.67,362.35,180.56,483.06a4,4,0,0,1-5.5-1.6,4,4,0,0,1-.5-2.06l3.56-156.29a4,4,0,0,1,2.13-3.47L401.53,199.78a4.07,4.07,0,0,1,5.51,1.63,4.12,4.12,0,0,1,.49,2L404.8,358.86A4,4,0,0,1,402.67,362.35Z" transform="translate(0.58 -1)"/><path class="cls-13" d="M260.85,408.62l-26.1,12.06a1.75,1.75,0,0,1-2.31-.85,1.86,1.86,0,0,1-.15-.56l-.73-7.78a1.84,1.84,0,0,1,1-2.17L258.68,397a1.38,1.38,0,0,1,1.84.65,1.42,1.42,0,0,1,.11.35l1.47,8.28A2.16,2.16,0,0,1,260.85,408.62Z" transform="translate(0.58 -1)"/><polygon class="cls-13" points="191.8 496.86 194.7 498.63 391.91 392.13 389.91 390.13 191.8 496.86"/><path class="cls-14" d="M274.57,268.82,390.09,369.29,180.49,483.37s-7.27,3.48-6-8.19,3.67-149,3.67-149-1.39-5.34,3.67-7.23S274.57,268.82,274.57,268.82Z" transform="translate(0.58 -1)"/><path class="cls-15" d="M467.1,366.42,245,487.13a4.05,4.05,0,0,1-6-3.66l3.57-156.29a4.06,4.06,0,0,1,2.12-3.48L466,203.85a4.05,4.05,0,0,1,6,3.64l-2.72,155.44A4.07,4.07,0,0,1,467.1,366.42Z" transform="translate(0.58 -1)"/><ellipse class="cls-16" cx="460.45" cy="674.04" rx="39.69" ry="24.26"/><ellipse class="cls-17" cx="460.28" cy="671.65" rx="38.77" ry="22.14"/><ellipse class="cls-4" cx="460.49" cy="671.49" rx="31.73" ry="18.8"/><path class="cls-18" d="M690.93,542.32c2.38,2,7,4.59,12-.1a5.34,5.34,0,0,0,1.41-4.15L704.14,410c0-1.9-2.15-4.05-4.8-4.05h-5.25a4.8,4.8,0,0,0-4.8,4.8v128A4.76,4.76,0,0,0,690.93,542.32Z" transform="translate(0.58 -1)"/><path class="cls-19" d="M630.42,618.38a16,16,0,0,0,11.58,0,1.82,1.82,0,0,0,1.37-1.75l-.16-54c0-.8-2.08-1.71-4.64-1.71h-5.09c-2.57,0-4.65.91-4.65,2v54C628.83,617.44,629.4,618,630.42,618.38Z" transform="translate(0.58 -1)"/><path class="cls-20" d="M438,681.28c8.78,2.11,26,4.83,44.18-.1,3.41-.92,5.21-2.23,5.2-4.35l-.58-134.48c0-2-7.94-4.25-17.72-4.25H449.66c-9.79,0-17.73,2.25-17.73,5V677.49C431.93,679,434.09,680.35,438,681.28Z" transform="translate(0.58 -1)"/><path class="cls-21" d="M213.3,535.83l-75.2-39.89a2.71,2.71,0,0,1-1.45-2.42l.4-55.44a2.71,2.71,0,0,1,2.75-2.69,2.68,2.68,0,0,1,1.14.26l77,36.74a2.72,2.72,0,0,1,1.55,2.56l-2.22,58.58a2.71,2.71,0,0,1-2.83,2.6A2.65,2.65,0,0,1,213.3,535.83Z" transform="translate(0.58 -1)"/><path class="cls-22" d="M258.8,601.36l-75.21-39.89a2.73,2.73,0,0,1-1.44-2.42l.4-55.44a2.72,2.72,0,0,1,2.74-2.7,2.69,2.69,0,0,1,1.15.26l77,36.74a2.73,2.73,0,0,1,1.54,2.56l-2.21,58.59a2.71,2.71,0,0,1-2.83,2.6A2.65,2.65,0,0,1,258.8,601.36Z" transform="translate(0.58 -1)"/><path class="cls-23" d="M466,509l-77.82,43.8a3.29,3.29,0,0,1-3.41-.11l-27.55-17.92a3.28,3.28,0,0,1,.21-5.65l79.44-43.42a3.29,3.29,0,0,1,3.43.17l25.94,17.56a3.28,3.28,0,0,1,.82,4.59A3.21,3.21,0,0,1,466,509Z" transform="translate(0.58 -1)"/><path class="cls-23" d="M447,544l-39.59,22.27a1.7,1.7,0,0,1-1.74-.06l-14-9.11a1.67,1.67,0,0,1-.49-2.32,1.61,1.61,0,0,1,.6-.56l40.42-22.09a1.68,1.68,0,0,1,1.74.08l13.2,8.94a1.69,1.69,0,0,1,.43,2.34A1.75,1.75,0,0,1,447,544Z" transform="translate(0.58 -1)"/><path class="cls-23" d="M491.88,518.89l-39.6,22.27a1.68,1.68,0,0,1-1.73,0l-14-9.12a1.67,1.67,0,0,1-.51-2.31,1.7,1.7,0,0,1,.62-.57L477.06,507a1.68,1.68,0,0,1,1.74.09L492,516a1.68,1.68,0,0,1-.12,2.89Z" transform="translate(0.58 -1)"/><path class="cls-24" d="M412.88,488.79l-71.31,38.63a3.09,3.09,0,0,1-3.06-.06l-9.75-5.8a1.72,1.72,0,0,1-.61-2.35,1.68,1.68,0,0,1,.67-.65l73.59-39.91a2.69,2.69,0,0,1,2.86.17l7.88,5.65a2.55,2.55,0,0,1,.59,3.56A2.52,2.52,0,0,1,412.88,488.79Z" transform="translate(0.58 -1)"/><path class="cls-24" d="M255.47,503.56,244.7,509.9a1.47,1.47,0,0,1-1.54,0L232.78,503a.61.61,0,0,1-.11-.86.73.73,0,0,1,.16-.14L244,496a1.72,1.72,0,0,1,1.74.07l9.81,6.41a.68.68,0,0,1,.08,1Z" transform="translate(0.58 -1)"/><path class="cls-24" d="M271.32,494.94l-10.77,6.33a1.45,1.45,0,0,1-1.55,0l-10.37-6.86a.6.6,0,0,1-.13-.84.69.69,0,0,1,.18-.16l11.12-6a1.7,1.7,0,0,1,1.74.07l9.81,6.41a.68.68,0,0,1,0,1A.3.3,0,0,1,271.32,494.94Z" transform="translate(0.58 -1)"/><path class="cls-24" d="M286.89,486.31l-10.77,6.34a1.47,1.47,0,0,1-1.54,0l-10.38-6.86a.61.61,0,0,1-.11-.86.73.73,0,0,1,.16-.14l11.12-6a1.72,1.72,0,0,1,1.74.07l9.81,6.41a.69.69,0,0,1,0,1Z" transform="translate(0.58 -1)"/><path class="cls-24" d="M302.63,477.88l-10.77,6.33a1.43,1.43,0,0,1-1.54,0l-10.38-6.86a.6.6,0,0,1-.13-.84.69.69,0,0,1,.18-.16l11.12-6a1.7,1.7,0,0,1,1.74.07l9.81,6.41a.68.68,0,0,1,0,1A.3.3,0,0,1,302.63,477.88Z" transform="translate(0.58 -1)"/><path class="cls-24" d="M318.25,469.05l-10.77,6.33a1.45,1.45,0,0,1-1.55,0l-10.37-6.86a.6.6,0,0,1-.17-.83.55.55,0,0,1,.17-.17l11.13-6a1.68,1.68,0,0,1,1.73.07l9.81,6.41a.68.68,0,0,1,.15,1A.58.58,0,0,1,318.25,469.05Z" transform="translate(0.58 -1)"/><path class="cls-24" d="M334,460.6l-10.77,6.33a1.43,1.43,0,0,1-1.54,0L311.35,460a.6.6,0,0,1-.17-.83.55.55,0,0,1,.17-.17l11.16-6a1.7,1.7,0,0,1,1.74.07l9.81,6.41a.69.69,0,0,1,.11,1A.8.8,0,0,1,334,460.6Z" transform="translate(0.58 -1)"/><path class="cls-24" d="M349.87,451.91l-10.77,6.33a1.49,1.49,0,0,1-1.55,0l-10.37-6.86a.6.6,0,0,1-.17-.83.55.55,0,0,1,.17-.17l11.13-6.05a1.66,1.66,0,0,1,1.73.07l9.81,6.4a.7.7,0,0,1,.15,1Z" transform="translate(0.58 -1)"/><path class="cls-24" d="M240,512l-10.77,6.33a1.45,1.45,0,0,1-1.55,0l-10.37-6.86a.6.6,0,0,1-.17-.83.55.55,0,0,1,.17-.17l11.13-6.05a1.68,1.68,0,0,1,1.73.07L240,510.8a.69.69,0,0,1,.26.94A.65.65,0,0,1,240,512Z" transform="translate(0.58 -1)"/><path class="cls-24" d="M223.57,520.52l-10.77,6.34a1.47,1.47,0,0,1-1.55-.05L200.88,520a.6.6,0,0,1-.17-.83.55.55,0,0,1,.17-.17L212,513a1.68,1.68,0,0,1,1.73.07l9.81,6.41a.69.69,0,0,1,.09,1Z" transform="translate(0.58 -1)"/><path class="cls-24" d="M365.64,443.05l-10.77,6.33a1.45,1.45,0,0,1-1.55,0L343,442.48a.6.6,0,0,1-.13-.84.69.69,0,0,1,.18-.16l11.12-6.05a1.68,1.68,0,0,1,1.73.07l9.82,6.41a.7.7,0,0,1,.12,1A.65.65,0,0,1,365.64,443.05Z" transform="translate(0.58 -1)"/><path class="cls-24" d="M381.28,434.69,370.51,441a1.49,1.49,0,0,1-1.55,0l-10.37-6.86a.6.6,0,0,1-.17-.83.55.55,0,0,1,.17-.17l11.13-6a1.68,1.68,0,0,1,1.73.07l9.81,6.41a.7.7,0,0,1,.12,1A.47.47,0,0,1,381.28,434.69Z" transform="translate(0.58 -1)"/><path class="cls-24" d="M397.48,425.86l-10.77,6.33a1.43,1.43,0,0,1-1.54,0l-10.37-6.86a.6.6,0,0,1-.17-.83.55.55,0,0,1,.17-.17l11.2-6.12a1.7,1.7,0,0,1,1.74.07l9.81,6.41a.69.69,0,0,1,.19.94A.71.71,0,0,1,397.48,425.86Z" transform="translate(0.58 -1)"/><path class="cls-24" d="M412.63,417.53l-10.77,6.33a1.45,1.45,0,0,1-1.55,0L389.94,417a.6.6,0,0,1-.17-.83.55.55,0,0,1,.17-.17L401.07,410a1.68,1.68,0,0,1,1.73.07l9.81,6.41a.68.68,0,0,1,.15,1A.58.58,0,0,1,412.63,417.53Z" transform="translate(0.58 -1)"/><path class="cls-24" d="M262.33,517.46l-10.77,6.33a1.45,1.45,0,0,1-1.55,0l-10.37-6.86a.6.6,0,0,1-.17-.83.55.55,0,0,1,.17-.17l11.13-6a1.68,1.68,0,0,1,1.73.07l9.82,6.41a.69.69,0,0,1,.14,1Z" transform="translate(0.58 -1)"/><path class="cls-24" d="M278.24,508.56l-10.77,6.34a1.49,1.49,0,0,1-1.55,0L255.55,508a.6.6,0,0,1-.17-.83.55.55,0,0,1,.17-.17l11.12-6a1.7,1.7,0,0,1,1.74.07l9.81,6.41a.7.7,0,0,1,.13,1Z" transform="translate(0.58 -1)"/><path class="cls-24" d="M293.53,500.16l-10.77,6.34a1.49,1.49,0,0,1-1.55,0l-10.37-6.86a.61.61,0,0,1-.11-.86.73.73,0,0,1,.16-.14L282,492.51a1.72,1.72,0,0,1,1.74.07l9.81,6.41a.68.68,0,0,1,.2.95A.58.58,0,0,1,293.53,500.16Z" transform="translate(0.58 -1)"/><path class="cls-24" d="M309,491.74l-10.77,6.34a1.47,1.47,0,0,1-1.54,0l-10.37-6.87a.6.6,0,0,1-.17-.83.55.55,0,0,1,.17-.17l11.13-6a1.68,1.68,0,0,1,1.73.07l9.81,6.41a.68.68,0,0,1,.16.95A.54.54,0,0,1,309,491.74Z" transform="translate(0.58 -1)"/><path class="cls-24" d="M325.09,483.15l-10.77,6.34a1.49,1.49,0,0,1-1.55,0l-10.37-6.86a.6.6,0,0,1-.13-.84.69.69,0,0,1,.18-.16l11.12-6.06a1.72,1.72,0,0,1,1.74.07l9.81,6.41a.69.69,0,0,1,.11,1A.86.86,0,0,1,325.09,483.15Z" transform="translate(0.58 -1)"/><path class="cls-24" d="M340.53,474.32l-10.77,6.33a1.43,1.43,0,0,1-1.54,0l-10.38-6.86a.6.6,0,0,1-.13-.84.69.69,0,0,1,.18-.16L329,466.67a1.7,1.7,0,0,1,1.74.07l9.81,6.41a.68.68,0,0,1,.2,1A.58.58,0,0,1,340.53,474.32Z" transform="translate(0.58 -1)"/><path class="cls-24" d="M356.39,465.83l-10.77,6.34a1.47,1.47,0,0,1-1.54,0l-10.37-6.86a.61.61,0,0,1-.15-.85.54.54,0,0,1,.15-.15l11.13-6.05a1.68,1.68,0,0,1,1.73.07l9.81,6.41a.68.68,0,0,1,.15.95A.93.93,0,0,1,356.39,465.83Z" transform="translate(0.58 -1)"/><path class="cls-24" d="M372.7,457.38l-10.77,6.33a1.43,1.43,0,0,1-1.54,0L350,456.81a.6.6,0,0,1-.17-.83.55.55,0,0,1,.17-.17l11.12-6a1.7,1.7,0,0,1,1.74.07l9.81,6.41a.68.68,0,0,1,.16.95A.57.57,0,0,1,372.7,457.38Z" transform="translate(0.58 -1)"/><path class="cls-24" d="M388.17,448.46l-10.77,6.33a1.49,1.49,0,0,1-1.55,0l-10.37-6.86a.6.6,0,0,1-.17-.83.55.55,0,0,1,.17-.17l11.12-6.05a1.7,1.7,0,0,1,1.74.07l9.81,6.41a.68.68,0,0,1,.15,1A.58.58,0,0,1,388.17,448.46Z" transform="translate(0.58 -1)"/><path class="cls-24" d="M404,439.59l-10.78,6.34a1.45,1.45,0,0,1-1.54-.05L381.3,439a.6.6,0,0,1-.17-.83.55.55,0,0,1,.17-.17L392.43,432a1.68,1.68,0,0,1,1.73.07l9.81,6.41a.69.69,0,0,1,.23.95A.8.8,0,0,1,404,439.59Z" transform="translate(0.58 -1)"/><path class="cls-24" d="M419.26,431.23l-10.77,6.33a1.49,1.49,0,0,1-1.55,0l-10.37-6.86a.6.6,0,0,1-.17-.83.55.55,0,0,1,.17-.17l11.13-6.05a1.66,1.66,0,0,1,1.73.07l9.81,6.4a.7.7,0,0,1,.15,1Z" transform="translate(0.58 -1)"/><path class="cls-24" d="M435.1,422.61,424.33,429a1.49,1.49,0,0,1-1.55,0l-10.37-6.86a.6.6,0,0,1-.17-.83.55.55,0,0,1,.17-.17L423.58,415a1.72,1.72,0,0,1,1.74.07l9.81,6.41a.69.69,0,0,1,.14,1A.52.52,0,0,1,435.1,422.61Z" transform="translate(0.58 -1)"/><path class="cls-24" d="M451.29,414.5l-10.77,6.34a1.49,1.49,0,0,1-1.55,0L428.6,414a.6.6,0,0,1-.17-.83.55.55,0,0,1,.17-.17l11.12-6.06a1.7,1.7,0,0,1,1.73.07l9.82,6.41a.68.68,0,0,1,.15,1A.58.58,0,0,1,451.29,414.5Z" transform="translate(0.58 -1)"/><path class="cls-24" d="M281.66,524.28l-10.78,6.33a1.43,1.43,0,0,1-1.54,0L259,523.71a.6.6,0,0,1-.17-.83.55.55,0,0,1,.17-.17l11.13-6a1.68,1.68,0,0,1,1.73.07l9.81,6.41a.69.69,0,0,1,.11,1A.46.46,0,0,1,281.66,524.28Z" transform="translate(0.58 -1)"/><path class="cls-24" d="M304.18,529.52l-10.77,6.33a1.45,1.45,0,0,1-1.55,0L281.49,529a.6.6,0,0,1-.13-.84.69.69,0,0,1,.18-.16l11.12-6a1.7,1.7,0,0,1,1.74.07l9.81,6.41a.69.69,0,0,1,0,1Z" transform="translate(0.58 -1)"/><path class="cls-24" d="M315.68,541.62,304.91,548a1.47,1.47,0,0,1-1.54,0L293,541.06a.61.61,0,0,1-.15-.85.54.54,0,0,1,.15-.15l11.12-6a1.72,1.72,0,0,1,1.74.07l9.81,6.41a.7.7,0,0,1,.12,1A.57.57,0,0,1,315.68,541.62Z" transform="translate(0.58 -1)"/><path class="cls-24" d="M320.67,520.58l-10.77,6.34a1.49,1.49,0,0,1-1.55,0L298,520a.6.6,0,0,1-.17-.83A.55.55,0,0,1,298,519l11.13-6.06a1.7,1.7,0,0,1,1.73.07l9.81,6.41a.69.69,0,0,1,0,1.16Z" transform="translate(0.58 -1)"/><path class="cls-24" d="M297.55,515.79l-10.77,6.33a1.43,1.43,0,0,1-1.54,0l-10.37-6.86a.6.6,0,0,1-.17-.83.55.55,0,0,1,.17-.17L286,508.14a1.7,1.7,0,0,1,1.74.07l9.81,6.41a.69.69,0,0,1,.22,1A.77.77,0,0,1,297.55,515.79Z" transform="translate(0.58 -1)"/><path class="cls-24" d="M313,507.16l-10.77,6.33a1.45,1.45,0,0,1-1.55,0l-10.37-6.86a.6.6,0,0,1-.13-.84.69.69,0,0,1,.18-.16l11.12-6.05a1.68,1.68,0,0,1,1.73.07l9.82,6.41a.69.69,0,0,1,.11,1A.86.86,0,0,1,313,507.16Z" transform="translate(0.58 -1)"/><path class="cls-24" d="M328.93,498.81l-10.77,6.33a1.45,1.45,0,0,1-1.55,0l-10.37-6.86a.6.6,0,0,1-.13-.84.69.69,0,0,1,.18-.16l11.12-6a1.7,1.7,0,0,1,1.74.07l9.81,6.41a.68.68,0,0,1,.05,1Z" transform="translate(0.58 -1)"/><path class="cls-24" d="M344.6,490l-10.77,6.33a1.45,1.45,0,0,1-1.55,0l-10.37-6.86a.6.6,0,0,1-.17-.83.55.55,0,0,1,.17-.17L333,482.42a1.7,1.7,0,0,1,1.74.07l9.81,6.41a.68.68,0,0,1,.15,1A.58.58,0,0,1,344.6,490Z" transform="translate(0.58 -1)"/><path class="cls-24" d="M360.29,481.45l-10.78,6.33a1.43,1.43,0,0,1-1.54,0l-10.37-6.86a.6.6,0,0,1-.17-.83.55.55,0,0,1,.17-.17l11.13-6.05a1.68,1.68,0,0,1,1.73.07l9.81,6.41a.68.68,0,0,1,.15,1A.58.58,0,0,1,360.29,481.45Z" transform="translate(0.58 -1)"/><path class="cls-24" d="M376.14,472.73l-10.77,6.34a1.49,1.49,0,0,1-1.55,0l-10.37-6.86a.6.6,0,0,1-.13-.84.69.69,0,0,1,.18-.16l11.12-6.06a1.72,1.72,0,0,1,1.74.07l9.81,6.41a.69.69,0,0,1,.11,1A.86.86,0,0,1,376.14,472.73Z" transform="translate(0.58 -1)"/><path class="cls-24" d="M392.1,464.3l-10.77,6.33a1.45,1.45,0,0,1-1.55,0l-10.37-6.86a.6.6,0,0,1-.17-.83.55.55,0,0,1,.17-.17l11.12-6a1.7,1.7,0,0,1,1.74.07l9.81,6.41a.68.68,0,0,1,.15,1A.58.58,0,0,1,392.1,464.3Z" transform="translate(0.58 -1)"/><path class="cls-24" d="M407.74,455.9,397,462.23a1.49,1.49,0,0,1-1.55,0l-10.37-6.86a.6.6,0,0,1-.17-.83.55.55,0,0,1,.17-.17l11.13-6.05a1.68,1.68,0,0,1,1.73.07l9.81,6.41a.69.69,0,0,1,.12,1A.53.53,0,0,1,407.74,455.9Z" transform="translate(0.58 -1)"/><path class="cls-24" d="M438.56,438.6l-10.77,6.33a1.43,1.43,0,0,1-1.54,0L415.88,438a.6.6,0,0,1-.17-.83.55.55,0,0,1,.17-.17L427,431a1.7,1.7,0,0,1,1.74.07l9.81,6.41a.69.69,0,0,1,.17,1A.81.81,0,0,1,438.56,438.6Z" transform="translate(0.58 -1)"/><path class="cls-24" d="M423.53,447l-10.77,6.34a1.49,1.49,0,0,1-1.55,0l-10.37-6.86a.6.6,0,0,1-.17-.83.55.55,0,0,1,.17-.17L412,439.39a1.7,1.7,0,0,1,1.73.07l9.82,6.41a.68.68,0,0,1,.15,1A.55.55,0,0,1,423.53,447Z" transform="translate(0.58 -1)"/><path class="cls-24" d="M446.75,451.88,436,458.21a1.43,1.43,0,0,1-1.54,0l-10.37-6.86a.6.6,0,0,1-.17-.83.55.55,0,0,1,.17-.17l11.12-6a1.68,1.68,0,0,1,1.74.07l9.81,6.4a.7.7,0,0,1,.06,1Z" transform="translate(0.58 -1)"/><path class="cls-24" d="M465.2,459.4l-10.77,6.34a1.47,1.47,0,0,1-1.54,0l-10.37-6.86a.61.61,0,0,1-.15-.85.54.54,0,0,1,.15-.15l11.12-6.05a1.72,1.72,0,0,1,1.74.07l9.81,6.41a.7.7,0,0,1,.13,1A.68.68,0,0,1,465.2,459.4Z" transform="translate(0.58 -1)"/><path class="cls-24" d="M481.17,450.34l-10.78,6.33a1.43,1.43,0,0,1-1.54,0l-10.37-6.86a.6.6,0,0,1-.17-.83.55.55,0,0,1,.17-.17l11.13-6.05a1.68,1.68,0,0,1,1.73.07l9.81,6.41a.68.68,0,0,1,.15,1A.58.58,0,0,1,481.17,450.34Z" transform="translate(0.58 -1)"/><path class="cls-24" d="M497,442.08l-10.77,6.33a1.45,1.45,0,0,1-1.55,0l-10.37-6.86a.6.6,0,0,1-.17-.83.55.55,0,0,1,.17-.17l11.13-6.05a1.68,1.68,0,0,1,1.73.07L497,441a.69.69,0,0,1,.14,1A.8.8,0,0,1,497,442.08Z" transform="translate(0.58 -1)"/><path class="cls-24" d="M430.69,460.64,419.92,467a1.43,1.43,0,0,1-1.54,0L408,460.07a.6.6,0,0,1-.17-.83.55.55,0,0,1,.17-.17L419.17,453a1.7,1.7,0,0,1,1.74.07l9.81,6.41a.68.68,0,0,1,.18,1A.67.67,0,0,1,430.69,460.64Z" transform="translate(0.58 -1)"/><path class="cls-24" d="M449.28,468l-10.77,6.34a1.49,1.49,0,0,1-1.55,0l-10.37-6.86a.6.6,0,0,1-.17-.83.55.55,0,0,1,.17-.17l11.13-6.05a1.68,1.68,0,0,1,1.73.06l9.82,6.41a.69.69,0,0,1,.14,1Z" transform="translate(0.58 -1)"/><path class="cls-24" d="M336.46,512.09l-10.77,6.33a1.43,1.43,0,0,1-1.54,0l-10.38-6.86a.6.6,0,0,1-.13-.84.69.69,0,0,1,.18-.16l11.12-6.05a1.7,1.7,0,0,1,1.74.07l9.81,6.41a.69.69,0,0,1,.11,1A.86.86,0,0,1,336.46,512.09Z" transform="translate(0.58 -1)"/><path class="cls-24" d="M367.73,494.91,357,501.25a1.47,1.47,0,0,1-1.54,0l-10.37-6.86a.61.61,0,0,1-.15-.85.54.54,0,0,1,.15-.15l11.12-6.05a1.72,1.72,0,0,1,1.74.07l9.81,6.41a.7.7,0,0,1,.1,1A.49.49,0,0,1,367.73,494.91Z" transform="translate(0.58 -1)"/><path class="cls-24" d="M351.75,503.54,341,509.87a1.43,1.43,0,0,1-1.54,0L329.06,503a.6.6,0,0,1-.13-.84.69.69,0,0,1,.18-.16L340.23,496A1.68,1.68,0,0,1,342,496l9.81,6.41a.69.69,0,0,1-.06,1.13Z" transform="translate(0.58 -1)"/><path class="cls-24" d="M383.77,486,373,492.36a1.49,1.49,0,0,1-1.55,0l-10.37-6.86a.6.6,0,0,1-.13-.84.69.69,0,0,1,.18-.16l11.12-6.05a1.7,1.7,0,0,1,1.74.07l9.81,6.41a.68.68,0,0,1,.07,1A.47.47,0,0,1,383.77,486Z" transform="translate(0.58 -1)"/><path class="cls-24" d="M399.58,477.84l-10.77,6.33a1.45,1.45,0,0,1-1.55,0l-10.37-6.86a.6.6,0,0,1-.13-.84.69.69,0,0,1,.18-.16l11.12-6.05a1.7,1.7,0,0,1,1.74.07l9.81,6.41a.69.69,0,0,1,.11,1A.86.86,0,0,1,399.58,477.84Z" transform="translate(0.58 -1)"/><path class="cls-24" d="M415.59,469.33l-10.77,6.34a1.49,1.49,0,0,1-1.55,0l-10.37-6.86a.6.6,0,0,1-.13-.84.69.69,0,0,1,.18-.16l11.12-6.06a1.7,1.7,0,0,1,1.73.07l9.82,6.41a.69.69,0,0,1,.11,1A.86.86,0,0,1,415.59,469.33Z" transform="translate(0.58 -1)"/><path class="cls-24" d="M210.1,511.08l-11.61,6.63a.67.67,0,0,1-.67,0l-6.15-4.24a.62.62,0,0,1,.06-1.06L203.4,506a.61.61,0,0,1,.64,0l6.09,3.95a.62.62,0,0,1,.26.85A.61.61,0,0,1,210.1,511.08Z" transform="translate(0.58 -1)"/><path class="cls-24" d="M225.35,502.42l-11.62,6.64a.61.61,0,0,1-.66,0l-6.15-4.24a.62.62,0,0,1,.06-1.06l11.67-6.35a.66.66,0,0,1,.64,0l6.09,4a.62.62,0,0,1,.12.87A.67.67,0,0,1,225.35,502.42Z" transform="translate(0.58 -1)"/><path class="cls-24" d="M241.35,494l-11.62,6.63a.65.65,0,0,1-.66,0l-6.15-4.24a.63.63,0,0,1-.14-.89.47.47,0,0,1,.19-.18L234.65,489a.61.61,0,0,1,.64,0l6.09,3.95a.63.63,0,0,1,.19.87A.56.56,0,0,1,241.35,494Z" transform="translate(0.58 -1)"/><path class="cls-24" d="M256.54,485.75l-11.62,6.63a.61.61,0,0,1-.66,0l-6.15-4.24a.62.62,0,0,1-.21-.85.53.53,0,0,1,.21-.21l11.68-6.35a.61.61,0,0,1,.64,0l6.09,3.95a.62.62,0,0,1,.22.86A.58.58,0,0,1,256.54,485.75Z" transform="translate(0.58 -1)"/><path class="cls-24" d="M272.25,477.45l-11.61,6.63a.62.62,0,0,1-.67,0l-6.15-4.24a.62.62,0,0,1,.06-1.06l11.67-6.35a.61.61,0,0,1,.64,0l6.09,3.95a.63.63,0,0,1,.18.87A.67.67,0,0,1,272.25,477.45Z" transform="translate(0.58 -1)"/><path class="cls-24" d="M288.53,468.4,276.92,475a.65.65,0,0,1-.66,0l-6.15-4.24a.63.63,0,0,1-.16-.88.55.55,0,0,1,.21-.19l11.68-6.35a.6.6,0,0,1,.63,0l6.09,4a.63.63,0,0,1,.26.84A.69.69,0,0,1,288.53,468.4Z" transform="translate(0.58 -1)"/><path class="cls-24" d="M304.09,460.05l-11.61,6.63a.62.62,0,0,1-.67,0l-6.15-4.24a.62.62,0,0,1,.06-1.06L297.39,455a.61.61,0,0,1,.64,0l6.09,4a.64.64,0,0,1,.15.88A.58.58,0,0,1,304.09,460.05Z" transform="translate(0.58 -1)"/><path class="cls-24" d="M320,451.21l-11.61,6.63a.67.67,0,0,1-.67,0l-6.15-4.24a.64.64,0,0,1-.16-.88.67.67,0,0,1,.22-.19l11.67-6.35a.61.61,0,0,1,.64,0l6.09,3.95a.63.63,0,0,1,.19.87A.56.56,0,0,1,320,451.21Z" transform="translate(0.58 -1)"/><path class="cls-24" d="M336,442.3l-11.61,6.64a.65.65,0,0,1-.66,0l-6.15-4.24a.63.63,0,0,1-.17-.86.7.7,0,0,1,.22-.2l11.68-6.35a.64.64,0,0,1,.63,0l6.09,4a.62.62,0,0,1,.12.87A.67.67,0,0,1,336,442.3Z" transform="translate(0.58 -1)"/><path class="cls-24" d="M351.59,433.87,340,440.5a.61.61,0,0,1-.66,0l-6.15-4.24a.63.63,0,0,1-.19-.87.58.58,0,0,1,.19-.19l11.68-6.35a.61.61,0,0,1,.64,0l6.09,3.95a.64.64,0,0,1,0,1.07Z" transform="translate(0.58 -1)"/><path class="cls-24" d="M367.14,425.69l-11.62,6.63a.61.61,0,0,1-.66,0l-6.15-4.24a.64.64,0,0,1-.15-.88.7.7,0,0,1,.2-.18l11.68-6.35a.61.61,0,0,1,.64,0l6.09,3.95a.63.63,0,0,1,.18.87A.67.67,0,0,1,367.14,425.69Z" transform="translate(0.58 -1)"/><path class="cls-24" d="M382.65,416.72,371,423.36a.62.62,0,0,1-.67,0l-6.15-4.24a.62.62,0,0,1,.06-1.06L376,411.68a.66.66,0,0,1,.64,0l6.09,4a.62.62,0,0,1,.12.87A.55.55,0,0,1,382.65,416.72Z" transform="translate(0.58 -1)"/><path class="cls-24" d="M399.16,408l-11.61,6.63a.67.67,0,0,1-.67,0l-6.15-4.24a.64.64,0,0,1-.16-.88.67.67,0,0,1,.22-.19L392.46,403a.61.61,0,0,1,.64,0l6.09,3.95a.63.63,0,0,1,.19.87A.56.56,0,0,1,399.16,408Z" transform="translate(0.58 -1)"/><path class="cls-24" d="M418.24,397.21l-11.61,6.64a.61.61,0,0,1-.66,0l-6.15-4.24a.62.62,0,0,1,.06-1.06l11.67-6.35a.64.64,0,0,1,.63,0l6.09,4a.62.62,0,0,1,.12.87A.67.67,0,0,1,418.24,397.21Z" transform="translate(0.58 -1)"/><path class="cls-24" d="M434.79,406.12l-16,9.2a1.73,1.73,0,0,1-1.82-.05l-8.74-5.79a1.71,1.71,0,0,1-.48-2.38,1.53,1.53,0,0,1,.58-.55l16-9.19a1.71,1.71,0,0,1,1.81.06l8.7,5.76a1.73,1.73,0,0,1,.52,2.39A1.76,1.76,0,0,1,434.79,406.12Z" transform="translate(0.58 -1)"/><path class="cls-24" d="M465.7,423.36l-21.59,12.55a1,1,0,0,1-1,0L433,429.2a1,1,0,0,1-.22-1.4,1.07,1.07,0,0,1,.27-.25l21.54-12.39a1,1,0,0,1,1,0l10.2,6.55a1,1,0,0,1,.22,1.4A1.07,1.07,0,0,1,465.7,423.36Z" transform="translate(0.58 -1)"/><path class="cls-24" d="M480,433.45,451.82,449.2a2,2,0,0,1-2-.07l-8.32-5.51a2,2,0,0,1-.45-2.79,2,2,0,0,1,.56-.53l28.07-15.93a2,2,0,0,1,2.06.08l8.41,5.68a2,2,0,0,1,.42,2.8A2,2,0,0,1,480,433.45Z" transform="translate(0.58 -1)"/><path class="cls-24" d="M263.72,534.14l-21.79,12.18a1,1,0,0,1-1,0l-10-6.89a1,1,0,0,1-.19-1.4.93.93,0,0,1,.27-.25l21.75-12a1,1,0,0,1,1,0l10.09,6.72a1,1,0,0,1-.13,1.64Z" transform="translate(0.58 -1)"/><path class="cls-24" d="M284.61,539.66l-27.88,16.52a1.2,1.2,0,0,1-1.31-.06l-9.53-6.71a1.21,1.21,0,0,1-.26-1.68,1.22,1.22,0,0,1,.36-.32l28.58-16.15a1.18,1.18,0,0,1,1.3.07l8.83,6.35a1.2,1.2,0,0,1,.24,1.68A1.18,1.18,0,0,1,284.61,539.66Z" transform="translate(0.58 -1)"/><path class="cls-24" d="M296.59,552.05l-25.23,14.7a1,1,0,0,1-1-.06l-9.06-6.89a.92.92,0,0,1-.17-1.3.84.84,0,0,1,.28-.25L286.6,544a.93.93,0,0,1,1,.06l9.07,6.44a.92.92,0,0,1,.22,1.28A1,1,0,0,1,296.59,552.05Z" transform="translate(0.58 -1)"/><path class="cls-24" d="M334.82,530.64l-13.6,8a1.31,1.31,0,0,1-1.35,0l-9.63-6.37a1.28,1.28,0,0,1-.39-1.77,1.21,1.21,0,0,1,.39-.39l13.55-8.33a1.27,1.27,0,0,1,1.4,0l9.68,6.72a1.28,1.28,0,0,1,.33,1.78A1.31,1.31,0,0,1,334.82,530.64Z" transform="translate(0.58 -1)"/><path class="cls-24" d="M432.8,477.41l-13.6,8a1.28,1.28,0,0,1-1.36,0L408.22,479a1.28,1.28,0,0,1-.39-1.77,1.21,1.21,0,0,1,.39-.39l13.56-8.33a1.27,1.27,0,0,1,1.4,0l9.67,6.72a1.28,1.28,0,0,1-.05,2.18Z" transform="translate(0.58 -1)"/><path class="cls-24" d="M243.24,528.38l-15.7,9a1.21,1.21,0,0,1-1.27,0l-9.65-6.66a1.19,1.19,0,0,1-.29-1.66,1.2,1.2,0,0,1,.37-.34l15.3-8.9a1.18,1.18,0,0,1,1.25,0l10.05,6.56a1.19,1.19,0,0,1,.33,1.64A1.22,1.22,0,0,1,243.24,528.38Z" transform="translate(0.58 -1)"/><path class="cls-25" d="M594.82,562.19a16,16,0,0,0,11.58,0,1.82,1.82,0,0,0,1.36-1.75l-.15-54c0-.8-2.08-1.7-4.65-1.7h-5.09c-2.56,0-4.64.9-4.64,2v54C593.23,561.25,593.79,561.82,594.82,562.19Z" transform="translate(0.58 -1)"/><path class="cls-5" d="M1597.5,1.12s-130.79,47-132.2,162.33,97,228.08,42.19,347.48c-44.37,96.6-168.82,36.9-214.74,10.57a74.89,74.89,0,0,1-25.2-23.56c-22.22-33.51-88.53-113-162.28-4.45-72.57,106.79-134.34,60.75-156.14,38.06a42.44,42.44,0,0,0-28.72-12.83C892.24,517.49,807.53,598.86,832,684c34.46,120.07-157,214.66-157,214.66H1597.5Z" transform="translate(0.58 -1)"/><path class="cls-26" d="M1598.82,898.66l-2.54-288.23s-175.45-37.19-186.47,0,85.61,21.49,78,67.77-271.22-69.42-283.09-1.65,61,30.58,69.5,79.34-131.37,141.34-174.6,142.16S1598.82,898.66,1598.82,898.66Z" transform="translate(0.58 -1)"/><path class="cls-5" d="M971.18,234.84c8.85,0,15.52,5,17.64,13h-10a8.2,8.2,0,0,0-7.79-4.77c-5.57,0-9.38,4.14-9.38,10.71s3.81,10.71,9.38,10.71a8.2,8.2,0,0,0,7.79-4.78h10c-2.12,8.06-8.79,13-17.64,13-11,0-18.72-7.79-18.72-18.92S960.2,234.84,971.18,234.84Z" transform="translate(0.58 -1)"/><path class="cls-5" d="M1009.62,235.27c9.12,0,13.68,5.24,13.68,11.71,0,4.66-2.55,9.06-8.27,10.76l8.58,14.74h-10.23l-7.73-14.05h-2.17v14.05h-9.07V235.27Zm-.53,7.52h-5.61V252h5.61c3.39,0,5-1.75,5-4.67C1014.07,244.6,1012.48,242.79,1009.09,242.79Z" transform="translate(0.58 -1)"/><path class="cls-5" d="M1051.78,242.53h-13.73v7.52h12.14v7h-12.14v8.16h13.73v7.27H1029V235.27h22.79Z" transform="translate(0.58 -1)"/><path class="cls-5" d="M1080.84,265.9H1067l-2.23,6.58h-9.49l13.46-37.21h10.5l13.46,37.21h-9.59Zm-6.94-20.62-4.56,13.63h9.17Z" transform="translate(0.58 -1)"/><path class="cls-5" d="M1130.21,253.87c0,11-7.64,18.61-19.51,18.61h-13.94V235.27h13.94C1122.57,235.27,1130.21,242.79,1130.21,253.87Zm-20.09,10.76c6.84,0,10.87-3.92,10.87-10.76S1117,243,1110.12,243h-4.29v21.63Z" transform="translate(0.58 -1)"/><path class="cls-5" d="M1152.91,272.85a18.72,18.72,0,0,1-19.13-19.09c0-11.18,8.59-19,19.13-19s19,7.84,19,19A18.64,18.64,0,0,1,1152.91,272.85Zm0-8.27c5.94,0,9.81-4.29,9.81-10.82s-3.87-10.81-9.81-10.81-9.86,4.19-9.86,10.81S1146.87,264.58,1152.91,264.58Z" transform="translate(0.58 -1)"/><path class="cls-5" d="M1192.21,235.27c9.12,0,13.68,5.24,13.68,11.71,0,4.66-2.55,9.06-8.27,10.76l8.58,14.74H1196l-7.73-14.05h-2.18v14.05H1177V235.27Zm-.53,7.52h-5.62V252h5.62c3.39,0,5-1.75,5-4.67C1196.66,244.6,1195.07,242.79,1191.68,242.79Z" transform="translate(0.58 -1)"/><path class="cls-5" d="M1234.37,242.53h-13.73v7.52h12.14v7h-12.14v8.16h13.73v7.27h-22.8V235.27h22.8Z" transform="translate(0.58 -1)"/><path class="cls-5" d="M1253.73,272.85c-8,0-14.26-4-14.52-11.51h9.64a4.27,4.27,0,0,0,4.61,4.25c2.66,0,4.35-1.33,4.35-3.5,0-6.89-18.6-3.18-18.5-16.38,0-7.05,5.78-11,13.57-11,8.11,0,13.57,4,13.94,11.13H1257a4,4,0,0,0-4.29-3.87c-2.18-.05-3.82,1.06-3.82,3.39,0,6.47,18.39,3.55,18.39,16C1267.3,267.65,1262.42,272.85,1253.73,272.85Z" transform="translate(0.58 -1)"/><path d="M1323.39,253c0,10.66-7.38,18-18.86,18h-13.48V235h13.48C1316,235,1323.39,242.27,1323.39,253ZM1304,263.38c6.61,0,10.5-3.79,10.5-10.4s-3.89-10.5-10.5-10.5h-4.15v20.9Z" transform="translate(0.58 -1)"/><path d="M1350.36,242h-13.27v7.27h11.73v6.77h-11.73V264h13.27v7h-22V235h22Z" transform="translate(0.58 -1)"/><path class="cls-5" d="M1034.41,295h7v17.14c0,3.39,1.67,5.35,5,5.35s5.06-2,5.06-5.35V295h7v17.1c0,7.92-5.55,11.84-12.16,11.84s-11.84-3.92-11.84-11.84Z" transform="translate(0.58 -1)"/><path class="cls-5" d="M1089,295v28.65h-7L1070.3,306v17.67h-7V295h7L1082,312.78V295Z" transform="translate(0.58 -1)"/><path class="cls-5" d="M1111.86,318.62h-10.69l-1.72,5.06h-7.3L1102.51,295h8.08L1121,323.68h-7.39Zm-5.35-15.88L1103,313.23h7.06Z" transform="translate(0.58 -1)"/><path d="M1166,295.7v27.78h-6.77l-11.32-17.14v17.14h-6.77V295.7h6.77l11.32,17.21V295.7Z" transform="translate(0.58 -1)"/><path d="M1170.82,295.7h6.77v16.62c0,3.28,1.62,5.18,4.83,5.18s4.9-1.9,4.9-5.18V295.7h6.77v16.58c0,7.67-5.38,11.47-11.79,11.47s-11.48-3.8-11.48-11.47Z" transform="translate(0.58 -1)"/><path d="M1215.87,301.12h-10.25v5.62h9.06V312h-9.06v6.1h10.25v5.42h-17V295.7h17Z" transform="translate(0.58 -1)"/><path d="M1239.19,295.7h7.16l-9.85,27.78H1228l-9.85-27.78h7.2l6.88,21Z" transform="translate(0.58 -1)"/><path d="M1266.47,318.57H1256.1l-1.66,4.91h-7.08l10.05-27.78h7.83l10,27.78h-7.16Zm-5.19-15.4-3.4,10.18h6.85Z" transform="translate(0.58 -1)"/><path d="M850.5,345.49c9.81,0,14.7,5.64,14.7,12.59,0,5-2.73,9.75-8.88,11.57l9.22,15.84h-11l-8.32-15.1H843.9v15.1h-9.75v-40Zm-.57,8.09h-6v9.92h6c3.65,0,5.36-1.88,5.36-5C855.29,355.52,853.58,353.58,849.93,353.58Z" transform="translate(0.58 -1)"/><path d="M895.82,353.3H881.07v8.09h13v7.52h-13v8.78h14.75v7.8h-24.5v-40h24.5Z" transform="translate(0.58 -1)"/><path d="M929.39,345.49h10.32l-14.19,40H913.33l-14.19-40h10.37l9.91,30.2Z" transform="translate(0.58 -1)"/><path d="M962.7,385.89c-11.34,0-20.58-8.49-20.58-20.51s9.24-20.46,20.58-20.46,20.45,8.44,20.45,20.46A20,20,0,0,1,962.7,385.89Zm0-8.89c6.37,0,10.54-4.61,10.54-11.62s-4.17-11.62-10.54-11.62-10.61,4.5-10.61,11.62S956.2,377,962.7,377Z" transform="translate(0.58 -1)"/><path d="M998.33,345.49V378h12.76v7.52H988.58v-40Z" transform="translate(0.58 -1)"/><path d="M1015.61,345.49h9.74v23.93c0,4.73,2.33,7.47,7,7.47s7.06-2.74,7.06-7.47V345.49h9.75v23.88c0,11.05-7.75,16.52-17,16.52s-16.52-5.47-16.52-16.52Z" transform="translate(0.58 -1)"/><path d="M1074.43,345c9.51,0,16.69,5.35,19,14h-10.71a8.81,8.81,0,0,0-8.38-5.12c-6,0-10.08,4.44-10.08,11.51s4.1,11.51,10.08,11.51a8.82,8.82,0,0,0,8.38-5.13h10.71c-2.28,8.66-9.46,14-19,14-11.8,0-20.12-8.38-20.12-20.34S1062.63,345,1074.43,345Z" transform="translate(0.58 -1)"/><path d="M1099.4,345.49h9.75v40h-9.75Z" transform="translate(0.58 -1)"/><path d="M1135.14,385.89c-11.34,0-20.57-8.49-20.57-20.51s9.23-20.46,20.57-20.46,20.45,8.44,20.45,20.46A20,20,0,0,1,1135.14,385.89Zm0-8.89c6.38,0,10.54-4.61,10.54-11.62s-4.16-11.62-10.54-11.62-10.6,4.5-10.6,11.62S1128.64,377,1135.14,377Zm6.61-47.12v7.58L1128,343.22v-6.73Z" transform="translate(0.58 -1)"/><path d="M1196.81,345.49v40h-9.74l-16.29-24.67v24.67H1161v-40h9.75l16.29,24.79V345.49Z" transform="translate(0.58 -1)"/><path class="cls-5" d="M1257.76,365.66c0,11.75-8.13,19.82-20.77,19.82h-14.84V345.86H1237C1249.63,345.86,1257.76,353.87,1257.76,365.66Zm-21.39,11.46c7.28,0,11.57-4.17,11.57-11.46s-4.29-11.56-11.57-11.56h-4.57v23Z" transform="translate(0.58 -1)"/><path class="cls-5" d="M1263.2,345.86h9.65v39.62h-9.65Z" transform="translate(0.58 -1)"/><path class="cls-5" d="M1316.83,358.39h-10.67c-1.47-2.66-4.18-4.07-7.79-4.07-6.21,0-10.33,4.41-10.33,11.29,0,7.34,4.18,11.63,11.12,11.63a9.49,9.49,0,0,0,9.59-7h-12.24v-7.11h21v9a19.39,19.39,0,0,1-19.07,13.66c-11.86,0-20.21-8.3-20.21-20.15s8.3-20.21,20.15-20.21C1307.85,345.4,1314.74,350.26,1316.83,358.39Z" transform="translate(0.58 -1)"/><path class="cls-5" d="M1322.89,345.86h9.65v39.62h-9.65Z" transform="translate(0.58 -1)"/><path class="cls-5" d="M1337.4,345.86h30.65v7.73h-10.5v31.89h-9.65V353.59h-10.5Z" transform="translate(0.58 -1)"/><path class="cls-5" d="M1397.58,378.48H1382.8l-2.37,7h-10.11l14.34-39.62h11.18l14.33,39.62H1400Zm-7.39-22L1385.33,371h9.77Z" transform="translate(0.58 -1)"/><path class="cls-5" d="M1424.19,345.86V378h12.64v7.45h-22.3V345.86Z" transform="translate(0.58 -1)"/><path class="cls-5" d="M3221.43,898.57s-130.79-47-132.2-162.34,97-228.07,42.19-347.48c-44.37-96.59-168.83-36.89-214.75-10.57a74.87,74.87,0,0,0-25.19,23.56c-22.23,33.52-88.54,113-162.28,4.46-72.57-106.8-134.34-60.75-156.15-38.06A42.46,42.46,0,0,1,2544.34,381c-28.18,1.23-112.88-80.15-88.45-165.28C2490.35,95.61,2298.84,1,2298.84,1h922.59Z" transform="translate(0.58 -1)"/><path class="cls-26" d="M3222.75,1l-2.55,288.23s-175.44,37.19-186.46,0,85.6-21.49,78-67.78-271.22,69.43-283.08,1.66,61-30.58,69.5-79.35S2766.75,2.46,2723.53,1.63,3222.75,1,3222.75,1Z" transform="translate(0.58 -1)"/></svg>