<?xml version="1.0" encoding="utf-8"?>
<!-- Generator: Adobe Illustrator 23.0.0, SVG Export Plug-In . SVG Version: 6.00 Build 0)  -->
<svg version="1.1" id="Capa_1" xmlns="http://www.w3.org/2000/svg" xmlns:xlink="http://www.w3.org/1999/xlink" x="0px" y="0px"
	 viewBox="0 0 1596.8 899.3" style="enable-background:new 0 0 1596.8 899.3;" xml:space="preserve">
<style type="text/css">
	.st0{fill:none;stroke:#000000;stroke-width:4;stroke-linecap:round;stroke-miterlimit:10;stroke-dasharray:0,10;}
	.st1{fill:url(#SVGID_1_);}
	.st2{fill:url(#SVGID_2_);}
	.st3{fill:#373E48;}
	.st4{fill:#FF4D14;}
	.st5{fill:#E84215;}
	.st6{fill:#AA3111;}
	.st7{fill:#0C0C0C;}
	.st8{fill:#232323;}
	.st9{opacity:0.8;fill:#373E48;enable-background:new    ;}
	.st10{fill:#FFFFFF;stroke:#D8D2C6;stroke-width:3;stroke-miterlimit:10;}
	.st11{opacity:0.95;fill:#98999D;stroke:#FFFFFF;stroke-miterlimit:10;enable-background:new    ;}
	.st12{fill:#FFFFFF;}
	.st13{opacity:0.5;fill:#373E48;enable-background:new    ;}
	.st14{opacity:0.2;fill:#373E48;enable-background:new    ;}
	.st15{fill:#D8D2C6;}
	.st16{fill:#98999D;}
	.st17{fill:url(#SVGID_3_);}
	.st18{fill:url(#SVGID_4_);}
	.st19{fill:url(#SVGID_5_);}
	.st20{opacity:0.5;fill:#DDDDDD;enable-background:new    ;}
	.st21{opacity:0.5;fill:#98999D;enable-background:new    ;}
	.st22{fill:#98999D;stroke:#FFFFFF;stroke-width:0.75;stroke-miterlimit:10;}
	.st23{fill:#98999D;stroke:#FFFFFF;stroke-miterlimit:10;}
	.st24{fill:url(#SVGID_6_);}
	.st25{fill:#AF3215;}
</style>
<title>Mesa de trabajo 1</title>
<ellipse class="st0" cx="328" cy="621.8" rx="165.1" ry="94.9"/>
<linearGradient id="SVGID_1_" gradientUnits="userSpaceOnUse" x1="167.436" y1="394.6729" x2="580.6717" y2="394.6729" gradientTransform="matrix(1 0 0 -1 0 900)">
	<stop  offset="0" style="stop-color:#98999D"/>
	<stop  offset="0.22" style="stop-color:#98999D"/>
	<stop  offset="0.44" style="stop-color:#9C9DA1"/>
	<stop  offset="1" style="stop-color:#EAEAEB"/>
</linearGradient>
<path class="st1" d="M578,489.2L340.2,621.8c-5.2,2.8-11.4,2.6-16.4-0.5l-154.1-99.5c-3.4-2.2-2.7-9,0.9-11l241-122.7
	c3.1-1.7,6.8-1.6,9.8,0.3l155.8,86.5C581.1,477.4,582.2,487,578,489.2z"/>
<linearGradient id="SVGID_2_" gradientUnits="userSpaceOnUse" x1="170.299" y1="403.6819" x2="578.903" y2="403.6819" gradientTransform="matrix(1 0 0 -1 0 900)">
	<stop  offset="0" style="stop-color:#FFFFFF"/>
	<stop  offset="0.22" style="stop-color:#FBFBFB"/>
	<stop  offset="1" style="stop-color:#98999D"/>
</linearGradient>
<path class="st2" d="M575.7,484L339.9,612.8c-5.1,2.8-11.4,2.6-16.4-0.5l-150.7-95.5c-2.5-1.6-3.2-4.9-1.7-7.4
	c0.5-0.8,1.1-1.4,1.9-1.8l238.2-128.5c3.1-1.7,6.8-1.6,9.8,0.3l154.9,94c2.9,1.8,3.8,5.7,1.9,8.6C577.4,482.8,576.6,483.5,575.7,484
	z"/>
<path class="st3" d="M400.4,382.4l-230.2,127c-2.5,1.4-9.6-3.7-9.5-6.5l3.6-184.9c0-1.4,1.9-5.8,4.8-8.2l239.5-129.7
	c3.7-2,12.7,4.5,11.5,10.8l-9,174C410.9,372.2,406.8,379,400.4,382.4z"/>
<polygon class="st4" points="491.5,246.6 511.4,235.1 527.9,245.1 508.9,256.6 "/>
<polygon class="st5" points="491.5,246.6 491.5,377.6 508.9,387.8 509.1,256.6 "/>
<polygon class="st6" points="527.9,245.1 528.7,287.3 524.6,290.3 524.6,378.9 508.9,387.8 509.1,256.6 "/>
<polygon points="524.6,290.3 543.6,278.7 560.8,288.7 541.8,300.1 "/>
<polygon class="st7" points="524.4,396.6 524.6,290.3 541.8,300.1 541.1,406 "/>
<polygon class="st8" points="560.8,288.7 561,368.1 556.5,370.9 556.4,397.5 541.1,406 541.8,300.1 "/>
<polygon class="st4" points="556.5,370.9 576.1,358.9 589.2,366.4 589.3,371.6 573.5,380.5 "/>
<polygon class="st5" points="556.3,415.2 556.5,370.9 573.5,380.5 573.2,425.4 "/>
<polygon class="st6" points="573.2,425.4 589.2,416.6 589.3,371.6 573.5,380.5 "/>
<polygon points="589.3,352.2 605.8,361.9 625.6,350.6 608.7,340.7 "/>
<polygon class="st8" points="625.6,350.6 626,431.3 606.3,443.8 605.8,361.9 "/>
<polyline class="st7" points="605.8,361.9 589.3,352.2 588.8,434.3 606.3,443.8 "/>
<polygon class="st4" points="638.4,443.5 658.1,432.3 641.2,422.1 621.6,434 "/>
<polygon class="st5" points="638.4,443.5 638.6,462.6 621.3,452.7 621.6,434 "/>
<polyline class="st6" points="638.4,443.5 658.1,432.3 658.1,451.5 638.6,462.6 "/>
<ellipse class="st4" cx="539.1" cy="557.3" rx="6.7" ry="5.1"/>
<ellipse cx="571.8" cy="538.9" rx="6.7" ry="5.1"/>
<ellipse class="st4" cx="603.7" cy="519.6" rx="6.7" ry="5.1"/>
<ellipse cx="637" cy="501.1" rx="6.7" ry="5.1"/>
<ellipse cx="572.1" cy="576.2" rx="6.7" ry="5.1"/>
<ellipse cx="636.8" cy="538.8" rx="6.7" ry="5.1"/>
<ellipse class="st4" cx="669.2" cy="519.5" rx="6.7" ry="5.1"/>
<ellipse class="st4" cx="603.9" cy="595.3" rx="6.7" ry="5.1"/>
<ellipse cx="636.5" cy="576.6" rx="6.7" ry="5.1"/>
<ellipse class="st4" cx="669.6" cy="557.6" rx="6.7" ry="5.1"/>
<ellipse cx="704.1" cy="576.2" rx="6.7" ry="5.1"/>
<ellipse class="st4" cx="669.4" cy="595.7" rx="6.7" ry="5.1"/>
<polygon class="st9" points="-0.2,331.3 125.9,221.3 147.9,234.6 104.3,260.2 -0.6,393.8 -0.1,399.3 105.2,264 173.7,223.9 
	194.4,235.5 221.1,220.8 256.8,240.8 302,214.8 321.6,225.3 339.4,215.1 339.8,210.4 322.9,220.2 303.3,209.3 258.2,235.7 
	226.6,217.3 343.8,149.5 344,145.2 263.5,192.2 297.8,132.8 337.4,109.9 337.1,106.1 296.4,129.7 258.9,193.9 196.6,230.4 
	175.9,218.8 153.9,231.5 126.8,216.2 0.3,326.8 "/>
<path class="st9" d="M238.2,168.1l13.7-7.9c1.9-1.1,4.3-0.4,5.5,1.5l0.1,0.1c1.1,1.9,0.4,4.3-1.5,5.5l-13.7,7.9
	c-1.9,1.1-4.3,0.4-5.5-1.5l-0.1-0.1C235.6,171.6,236.2,169.2,238.2,168.1z"/>
<path class="st9" d="M191.2,210.3l60.1-34.7c1.9-1.1,4.3-0.4,5.5,1.5l0.1,0.1c1.1,1.9,0.4,4.3-1.5,5.5l-60.1,34.7
	c-1.9,1.1-4.3,0.4-5.5-1.5l-0.1-0.1C188.6,213.8,189.3,211.4,191.2,210.3z"/>
<path class="st9" d="M111.6,184.1l13.7-7.9c1.9-1.1,4.3-0.4,5.5,1.5l0.1,0.1c1.1,1.9,0.4,4.3-1.5,5.5l-13.7,7.9
	c-1.9,1.1-4.3,0.4-5.5-1.5l-0.1-0.1C109,187.6,109.7,185.2,111.6,184.1z"/>
<path class="st9" d="M83.5,216.1l41.7-24.1c1.9-1.1,4.3-0.4,5.5,1.5l0.1,0.1c1.1,1.9,0.4,4.3-1.5,5.5l-41.7,24.1
	c-1.9,1.1-4.3,0.4-5.5-1.5l-0.1-0.1C81,219.7,81.6,217.2,83.5,216.1z"/>
<polygon class="st9" points="-0.3,255 125,336.3 144.6,302.6 206.3,266.8 225.5,277.7 220.7,280.6 205.5,271.6 146.9,305.9 
	128,338.1 159.5,356.5 163.4,354.9 163.5,358.9 159.1,361.6 146.9,354.6 117.7,404.9 0.2,470.8 0.1,466.7 115.4,401.4 143.5,353.2 
	-0.1,261.3 "/>
<ellipse class="st10" cx="459.9" cy="674.8" rx="71.9" ry="42"/>
<path class="st11" d="M404.9,383.1L170.1,509.4c-1.8,1-4.1,0.3-5.1-1.5c-0.3-0.6-0.5-1.2-0.5-1.9l4.1-184.2c0-1.4-0.3-5.3,2.6-7.7
	l239.4-130.9c3.7-2,9.2,2.8,9.2,7l-4.3,175.3C415.5,372.9,411.4,379.6,404.9,383.1z"/>
<path class="st9" d="M402.7,362.4L180.6,483.1c-2,1.1-4.4,0.4-5.5-1.6c-0.3-0.6-0.5-1.3-0.5-2.1l3.6-156.3c0-1.5,0.8-2.8,2.1-3.5
	l221.3-119.9c2-1.1,4.4-0.3,5.5,1.6c0.3,0.6,0.5,1.3,0.5,2l-2.7,155.4C404.8,360.3,404,361.7,402.7,362.4z"/>
<path class="st12" d="M260.9,408.6l-26.1,12.1c-0.9,0.4-1.9,0-2.3-0.9c-0.1-0.2-0.1-0.4-0.2-0.6l-0.7-7.8c-0.3-0.9,0.2-1.8,1-2.2
	l26.1-12.3c0.7-0.3,1.5,0,1.8,0.7c0.1,0.1,0.1,0.2,0.1,0.3l1.5,8.3C262.3,407.3,261.8,408.2,260.9,408.6z"/>
<polygon class="st12" points="191.2,497.9 194.1,499.6 391.3,393.1 389.3,391.1 "/>
<path class="st13" d="M274.6,268.8l115.5,100.5L180.5,483.4c0,0-7.3,3.5-6-8.2s3.7-149,3.7-149s-1.4-5.3,3.7-7.2
	S274.6,268.8,274.6,268.8z"/>
<path class="st14" d="M467.1,366.4L245,487.1c-2,1.1-4.4,0.3-5.5-1.6c-0.3-0.6-0.5-1.3-0.5-2l3.6-156.3c0-1.5,0.8-2.8,2.1-3.5
	L466,203.9c2-1.1,4.4-0.4,5.5,1.6c0.3,0.6,0.5,1.3,0.5,2l-2.7,155.4C469.2,364.4,468.4,365.7,467.1,366.4z"/>
<ellipse class="st15" cx="459.9" cy="675" rx="39.7" ry="24.3"/>
<ellipse class="st16" cx="459.7" cy="672.7" rx="38.8" ry="22.1"/>
<ellipse class="st3" cx="459.9" cy="672.5" rx="31.7" ry="18.8"/>
<linearGradient id="SVGID_3_" gradientUnits="userSpaceOnUse" x1="696.8275" y1="355.1398" x2="696.8275" y2="494.05" gradientTransform="matrix(1 0 0 -1 0 900)">
	<stop  offset="0" style="stop-color:#A5A7AB"/>
	<stop  offset="0.98" style="stop-color:#FFFFFF;stop-opacity:0"/>
</linearGradient>
<path class="st17" d="M690.9,542.3c2.4,2,7,4.6,12-0.1c1-1.1,1.6-2.6,1.4-4.2L704.1,410c0-1.9-2.2-4-4.8-4h-5.3
	c-2.7,0-4.8,2.1-4.8,4.8v128C689.3,540.1,689.9,541.4,690.9,542.3z"/>
<linearGradient id="SVGID_4_" gradientUnits="userSpaceOnUse" x1="636.1" y1="280.5356" x2="636.1" y2="339.08" gradientTransform="matrix(1 0 0 -1 0 900)">
	<stop  offset="0" style="stop-color:#ADB0B3"/>
	<stop  offset="0.98" style="stop-color:#FFFFFF;stop-opacity:0"/>
</linearGradient>
<path class="st18" d="M630.4,618.4c3.7,1.4,7.9,1.4,11.6,0c0.8-0.2,1.4-0.9,1.4-1.8l-0.2-54c0-0.8-2.1-1.7-4.6-1.7h-5.1
	c-2.6,0-4.7,0.9-4.7,2v54C628.8,617.4,629.4,618,630.4,618.4z"/>
<linearGradient id="SVGID_5_" gradientUnits="userSpaceOnUse" x1="459.655" y1="216.0443" x2="459.655" y2="361.8999" gradientTransform="matrix(1 0 0 -1 0 900)">
	<stop  offset="0" style="stop-color:#FFFFFF"/>
	<stop  offset="0.98" style="stop-color:#FFFFFF;stop-opacity:0"/>
</linearGradient>
<path class="st19" d="M438,681.3c8.8,2.1,26,4.8,44.2-0.1c3.4-0.9,5.2-2.2,5.2-4.3l-0.6-134.5c0-2-7.9-4.3-17.7-4.3h-19.4
	c-9.8,0-17.7,2.3-17.7,5v134.4C431.9,679,434.1,680.3,438,681.3z"/>
<path class="st20" d="M213.3,535.8l-75.2-39.9c-0.9-0.5-1.5-1.4-1.4-2.4l0.4-55.4c0-1.5,1.2-2.7,2.7-2.7c0.4,0,0.8,0.1,1.1,0.3
	l77,36.7c1,0.5,1.6,1.5,1.6,2.6l-2.2,58.6c-0.1,1.5-1.3,2.7-2.8,2.6C214,536.1,213.7,536,213.3,535.8z"/>
<path class="st21" d="M258.8,601.4l-75.2-39.9c-0.9-0.5-1.4-1.4-1.4-2.4l0.4-55.4c0-1.5,1.2-2.7,2.7-2.7c0.4,0,0.8,0.1,1.2,0.3
	l77,36.7c1,0.5,1.6,1.5,1.5,2.6l-2.2,58.6c-0.1,1.5-1.3,2.7-2.8,2.6C259.5,601.6,259.2,601.5,258.8,601.4z"/>
<path class="st22" d="M466,509l-77.8,43.8c-1.1,0.6-2.4,0.6-3.4-0.1l-27.5-17.9c-1.5-1-2-3-1-4.5c0.3-0.5,0.7-0.8,1.2-1.1l79.4-43.4
	c1.1-0.6,2.4-0.5,3.4,0.2l25.9,17.6c1.5,1,1.9,3.1,0.8,4.6C466.8,508.4,466.4,508.8,466,509z"/>
<path class="st22" d="M447,544l-39.6,22.3c-0.5,0.3-1.2,0.3-1.7-0.1l-14-9.1c-0.8-0.5-1-1.5-0.5-2.3c0.2-0.2,0.4-0.4,0.6-0.6
	l40.4-22.1c0.5-0.3,1.2-0.3,1.7,0.1l13.2,8.9c0.8,0.5,1,1.6,0.4,2.3C447.4,543.7,447.2,543.9,447,544z"/>
<path class="st22" d="M491.9,518.9l-39.6,22.3c-0.5,0.3-1.2,0.3-1.7,0l-14-9.1c-0.8-0.5-1-1.5-0.5-2.3c0.2-0.2,0.4-0.4,0.6-0.6
	l40.4-22.2c0.6-0.3,1.2-0.3,1.7,0.1L492,516c0.8,0.5,1,1.5,0.5,2.3C492.3,518.6,492.1,518.8,491.9,518.9z"/>
<path class="st23" d="M412.9,488.8l-71.3,38.6c-1,0.5-2.1,0.5-3.1-0.1l-9.8-5.8c-0.8-0.5-1.1-1.5-0.6-2.4c0.2-0.3,0.4-0.5,0.7-0.6
	l73.6-39.9c0.9-0.5,2-0.4,2.9,0.2l7.9,5.6c1.1,0.8,1.4,2.4,0.6,3.6C413.5,488.3,413.2,488.6,412.9,488.8z"/>
<path class="st23" d="M255.5,503.6l-10.8,6.3c-0.5,0.3-1.1,0.3-1.5,0l-10.4-6.9c-0.3-0.2-0.3-0.6-0.1-0.9c0-0.1,0.1-0.1,0.2-0.1
	l11.1-6c0.5-0.3,1.2-0.3,1.7,0.1l9.8,6.4c0.3,0.2,0.3,0.7,0.1,1C255.6,503.5,255.5,503.5,255.5,503.6z"/>
<path class="st23" d="M271.3,494.9l-10.8,6.3c-0.5,0.3-1.1,0.3-1.5,0l-10.4-6.9c-0.3-0.2-0.3-0.6-0.1-0.8c0-0.1,0.1-0.1,0.2-0.2
	l11.1-6c0.5-0.3,1.2-0.3,1.7,0.1l9.8,6.4C271.6,494.1,271.7,494.6,271.3,494.9C271.4,494.9,271.3,494.9,271.3,494.9z"/>
<path class="st23" d="M286.9,486.3l-10.8,6.3c-0.5,0.3-1.1,0.3-1.5,0l-10.4-6.9c-0.3-0.2-0.3-0.6-0.1-0.9c0-0.1,0.1-0.1,0.2-0.1
	l11.1-6c0.5-0.3,1.2-0.3,1.7,0.1l9.8,6.4C287.2,485.5,287.2,486,286.9,486.3C286.9,486.3,286.9,486.3,286.9,486.3z"/>
<path class="st23" d="M302.6,477.9l-10.8,6.3c-0.5,0.3-1.1,0.3-1.5,0l-10.4-6.9c-0.3-0.2-0.3-0.6-0.1-0.8c0-0.1,0.1-0.1,0.2-0.2
	l11.1-6c0.5-0.3,1.2-0.3,1.7,0.1l9.8,6.4C302.9,477.1,303,477.5,302.6,477.9C302.7,477.8,302.7,477.9,302.6,477.9z"/>
<path class="st23" d="M318.3,469l-10.8,6.3c-0.5,0.3-1.1,0.3-1.5,0l-10.4-6.9c-0.3-0.2-0.4-0.6-0.2-0.8c0-0.1,0.1-0.1,0.2-0.2
	l11.1-6c0.5-0.3,1.2-0.3,1.7,0.1l9.8,6.4c0.3,0.2,0.4,0.7,0.2,1C318.3,469,318.3,469,318.3,469z"/>
<path class="st23" d="M334,460.6l-10.8,6.3c-0.5,0.3-1.1,0.3-1.5,0l-10.3-6.9c-0.3-0.2-0.4-0.6-0.2-0.8c0-0.1,0.1-0.1,0.2-0.2
	l11.2-6c0.5-0.3,1.2-0.3,1.7,0.1l9.8,6.4c0.3,0.2,0.3,0.7,0.1,1C334.1,460.5,334.1,460.6,334,460.6z"/>
<path class="st23" d="M349.9,451.9l-10.8,6.3c-0.5,0.3-1.1,0.3-1.5,0l-10.4-6.9c-0.3-0.2-0.4-0.6-0.2-0.8c0-0.1,0.1-0.1,0.2-0.2
	l11.1-6c0.5-0.3,1.2-0.3,1.7,0.1l9.8,6.4c0.3,0.2,0.4,0.7,0.1,1C350,451.8,349.9,451.9,349.9,451.9z"/>
<path class="st23" d="M240,512l-10.8,6.3c-0.5,0.3-1.1,0.3-1.6,0l-10.4-6.9c-0.3-0.2-0.4-0.6-0.2-0.8c0-0.1,0.1-0.1,0.2-0.2l11.1-6
	c0.5-0.3,1.2-0.3,1.7,0.1l9.8,6.3c0.3,0.2,0.4,0.6,0.3,0.9C240.2,511.8,240.1,511.9,240,512z"/>
<path class="st23" d="M223.6,520.5l-10.8,6.3c-0.5,0.3-1.1,0.3-1.6,0l-10.4-6.8c-0.3-0.2-0.4-0.6-0.2-0.8c0-0.1,0.1-0.1,0.2-0.2
	l11.1-6c0.5-0.3,1.2-0.3,1.7,0.1l9.8,6.4C223.8,519.7,223.9,520.2,223.6,520.5C223.6,520.5,223.6,520.5,223.6,520.5z"/>
<path class="st23" d="M365.6,443l-10.8,6.3c-0.5,0.3-1.1,0.3-1.5,0l-10.3-6.9c-0.3-0.2-0.3-0.6-0.1-0.8c0-0.1,0.1-0.1,0.2-0.2
	l11.1-6c0.5-0.3,1.2-0.3,1.7,0.1l9.8,6.4c0.3,0.2,0.4,0.7,0.1,1C365.8,442.9,365.7,443,365.6,443z"/>
<path class="st23" d="M381.3,434.7l-10.8,6.3c-0.5,0.3-1.1,0.3-1.5,0l-10.4-6.9c-0.3-0.2-0.4-0.6-0.2-0.8c0-0.1,0.1-0.1,0.2-0.2
	l11.1-6c0.5-0.3,1.2-0.3,1.7,0.1l9.8,6.4c0.3,0.2,0.4,0.7,0.1,1C381.3,434.6,381.3,434.7,381.3,434.7z"/>
<path class="st23" d="M397.5,425.9l-10.8,6.3c-0.5,0.3-1.1,0.3-1.5,0l-10.4-6.9c-0.3-0.2-0.4-0.6-0.2-0.8c0-0.1,0.1-0.1,0.2-0.2
	l11.2-6.1c0.5-0.3,1.2-0.3,1.7,0.1l9.8,6.4c0.3,0.2,0.4,0.6,0.2,0.9C397.7,425.7,397.6,425.8,397.5,425.9z"/>
<path class="st23" d="M412.6,417.5l-10.8,6.3c-0.5,0.3-1.1,0.3-1.5,0l-10.4-6.9c-0.3-0.2-0.4-0.6-0.2-0.8c0-0.1,0.1-0.1,0.2-0.2
	l11.1-6c0.5-0.3,1.2-0.3,1.7,0.1l9.8,6.4c0.3,0.2,0.4,0.7,0.2,1C412.7,417.4,412.7,417.5,412.6,417.5z"/>
<path class="st23" d="M262.3,517.5l-10.8,6.3c-0.5,0.3-1.1,0.3-1.6,0l-10.4-6.9c-0.3-0.2-0.4-0.6-0.2-0.8c0-0.1,0.1-0.1,0.2-0.2
	l11.1-6c0.5-0.3,1.2-0.3,1.7,0.1l9.8,6.4c0.3,0.2,0.4,0.7,0.1,1C262.4,517.4,262.4,517.4,262.3,517.5z"/>
<path class="st23" d="M278.2,508.6l-10.8,6.3c-0.5,0.3-1.1,0.3-1.5,0l-10.4-6.9c-0.3-0.2-0.4-0.6-0.2-0.8c0-0.1,0.1-0.1,0.2-0.2
	l11.1-6c0.5-0.3,1.2-0.3,1.7,0.1l9.8,6.4c0.3,0.2,0.4,0.7,0.1,1C278.3,508.5,278.3,508.5,278.2,508.6z"/>
<path class="st23" d="M293.5,500.2l-10.8,6.3c-0.5,0.3-1.1,0.3-1.5,0l-10.4-6.9c-0.3-0.2-0.3-0.6-0.1-0.9c0-0.1,0.1-0.1,0.2-0.1
	l11.1-6.1c0.5-0.3,1.2-0.3,1.7,0.1l9.8,6.4c0.3,0.2,0.4,0.6,0.2,1C293.7,500,293.6,500.1,293.5,500.2z"/>
<path class="st23" d="M309,491.7l-10.8,6.3c-0.5,0.3-1.1,0.3-1.5,0l-10.4-6.9c-0.3-0.2-0.4-0.6-0.2-0.8c0-0.1,0.1-0.1,0.2-0.2
	l11.1-6c0.5-0.3,1.2-0.3,1.7,0.1l9.8,6.4c0.3,0.2,0.4,0.6,0.2,0.9C309.1,491.6,309.1,491.7,309,491.7z"/>
<path class="st23" d="M325.1,483.1l-10.8,6.3c-0.5,0.3-1.1,0.3-1.5,0l-10.4-6.9c-0.3-0.2-0.3-0.6-0.1-0.8c0-0.1,0.1-0.1,0.2-0.2
	l11.1-6.1c0.5-0.3,1.2-0.3,1.7,0.1l9.8,6.4c0.3,0.2,0.3,0.7,0.1,1C325.2,483.1,325.1,483.1,325.1,483.1z"/>
<path class="st23" d="M340.5,474.3l-10.8,6.3c-0.5,0.3-1.1,0.3-1.5,0l-10.4-6.9c-0.3-0.2-0.3-0.6-0.1-0.8c0-0.1,0.1-0.1,0.2-0.2
	l11.1-6.1c0.5-0.3,1.2-0.3,1.7,0.1l9.8,6.4c0.3,0.2,0.4,0.6,0.2,1C340.7,474.2,340.6,474.3,340.5,474.3z"/>
<path class="st23" d="M356.4,465.8l-10.8,6.3c-0.5,0.3-1.1,0.3-1.5,0l-10.4-6.9c-0.3-0.2-0.3-0.6-0.2-0.8c0-0.1,0.1-0.1,0.2-0.2
	l11.1-6c0.5-0.3,1.2-0.3,1.7,0.1l9.8,6.4c0.3,0.2,0.4,0.6,0.1,1C356.5,465.7,356.4,465.8,356.4,465.8z"/>
<path class="st23" d="M372.7,457.4l-10.8,6.3c-0.5,0.3-1.1,0.3-1.5,0l-10.4-6.9c-0.3-0.2-0.4-0.6-0.2-0.8c0-0.1,0.1-0.1,0.2-0.2
	l11.1-6c0.5-0.3,1.2-0.3,1.7,0.1l9.8,6.4c0.3,0.2,0.4,0.6,0.2,0.9C372.8,457.3,372.8,457.3,372.7,457.4z"/>
<path class="st23" d="M388.2,448.5l-10.8,6.3c-0.5,0.3-1.1,0.3-1.5,0l-10.4-6.9c-0.3-0.2-0.4-0.6-0.2-0.8c0-0.1,0.1-0.1,0.2-0.2
	l11.1-6c0.5-0.3,1.2-0.3,1.7,0.1l9.8,6.4c0.3,0.2,0.4,0.7,0.2,1C388.3,448.4,388.2,448.4,388.2,448.5z"/>
<path class="st23" d="M404,439.6l-10.8,6.3c-0.5,0.3-1.1,0.3-1.5,0l-10.4-6.9c-0.3-0.2-0.4-0.6-0.2-0.8c0-0.1,0.1-0.1,0.2-0.2
	l11.1-6c0.5-0.3,1.2-0.3,1.7,0.1l9.8,6.4c0.3,0.2,0.4,0.6,0.2,0.9C404.2,439.5,404.1,439.5,404,439.6z"/>
<path class="st23" d="M419.3,431.2l-10.8,6.3c-0.5,0.3-1.1,0.3-1.5,0l-10.4-6.9c-0.3-0.2-0.4-0.6-0.2-0.8c0-0.1,0.1-0.1,0.2-0.2
	l11.1-6c0.5-0.3,1.2-0.3,1.7,0.1l9.8,6.4c0.3,0.2,0.4,0.7,0.1,1C419.4,431.1,419.3,431.2,419.3,431.2z"/>
<path class="st23" d="M435.1,422.6l-10.8,6.4c-0.5,0.3-1.1,0.3-1.5,0l-10.4-6.9c-0.3-0.2-0.4-0.6-0.2-0.8c0-0.1,0.1-0.1,0.2-0.2
	l11.2-6.1c0.5-0.3,1.2-0.3,1.7,0.1l9.8,6.4c0.3,0.2,0.4,0.7,0.1,1C435.2,422.5,435.2,422.6,435.1,422.6z"/>
<path class="st23" d="M451.3,414.5l-10.8,6.3c-0.5,0.3-1.1,0.3-1.5,0l-10.4-6.9c-0.3-0.2-0.4-0.6-0.2-0.8c0-0.1,0.1-0.1,0.2-0.2
	l11.1-6.1c0.5-0.3,1.2-0.3,1.7,0.1l9.8,6.4c0.3,0.2,0.4,0.7,0.2,1C451.4,414.4,451.3,414.5,451.3,414.5z"/>
<path class="st23" d="M281.7,524.3l-10.8,6.3c-0.5,0.3-1.1,0.3-1.5,0l-10.3-6.9c-0.3-0.2-0.4-0.6-0.2-0.8c0-0.1,0.1-0.1,0.2-0.2
	l11.1-6c0.5-0.3,1.2-0.3,1.7,0.1l9.8,6.4c0.3,0.2,0.3,0.7,0.1,1C281.7,524.2,281.7,524.2,281.7,524.3z"/>
<path class="st23" d="M304.2,529.5l-10.8,6.3c-0.5,0.3-1.1,0.3-1.5,0l-10.4-6.9c-0.3-0.2-0.3-0.6-0.1-0.8c0-0.1,0.1-0.1,0.2-0.2
	l11.1-6c0.5-0.3,1.2-0.3,1.7,0.1l9.8,6.4C304.5,528.7,304.5,529.2,304.2,529.5C304.2,529.5,304.2,529.5,304.2,529.5z"/>
<path class="st23" d="M315.7,541.6l-10.8,6.4c-0.5,0.3-1.1,0.3-1.5,0l-10.4-6.9c-0.3-0.2-0.3-0.6-0.2-0.8c0-0.1,0.1-0.1,0.2-0.2
	l11.1-6c0.5-0.3,1.2-0.3,1.7,0.1l9.8,6.4c0.3,0.2,0.4,0.7,0.1,1C315.8,541.5,315.7,541.6,315.7,541.6z"/>
<path class="st23" d="M320.7,520.6l-10.8,6.3c-0.5,0.3-1.1,0.3-1.5,0L298,520c-0.3-0.2-0.4-0.6-0.2-0.8c0-0.1,0.1-0.1,0.2-0.2
	l11.1-6.1c0.5-0.3,1.2-0.3,1.7,0.1l9.8,6.4c0.3,0.2,0.4,0.6,0.2,1C320.8,520.5,320.8,520.5,320.7,520.6z"/>
<path class="st23" d="M297.5,515.8l-10.8,6.3c-0.5,0.3-1.1,0.3-1.5,0l-10.4-6.9c-0.3-0.2-0.4-0.6-0.2-0.8c0-0.1,0.1-0.1,0.2-0.2
	l11.1-6.1c0.5-0.3,1.2-0.3,1.7,0.1l9.8,6.4c0.3,0.2,0.4,0.6,0.2,1C297.7,515.7,297.6,515.7,297.5,515.8z"/>
<path class="st23" d="M313,507.2l-10.8,6.3c-0.5,0.3-1.1,0.3-1.5,0l-10.4-6.9c-0.3-0.2-0.3-0.6-0.1-0.8c0-0.1,0.1-0.1,0.2-0.2
	l11.1-6c0.5-0.3,1.2-0.3,1.7,0.1l9.8,6.4c0.3,0.2,0.3,0.7,0.1,1C313.1,507.1,313.1,507.1,313,507.2z"/>
<path class="st23" d="M328.9,498.8l-10.8,6.3c-0.5,0.3-1.1,0.3-1.5,0l-10.4-6.9c-0.3-0.2-0.3-0.6-0.1-0.8c0-0.1,0.1-0.1,0.2-0.2
	l11.1-6c0.5-0.3,1.2-0.3,1.7,0.1l9.8,6.4C329.2,498,329.3,498.5,328.9,498.8C329,498.8,329,498.8,328.9,498.8z"/>
<path class="st23" d="M344.6,490l-10.8,6.3c-0.5,0.3-1.1,0.3-1.5,0l-10.4-6.9c-0.3-0.2-0.4-0.6-0.2-0.8c0-0.1,0.1-0.1,0.2-0.2
	l11.1-6c0.5-0.3,1.2-0.3,1.7,0.1l9.8,6.4c0.3,0.2,0.4,0.7,0.2,1C344.7,489.9,344.6,490,344.6,490z"/>
<path class="st23" d="M360.3,481.5l-10.8,6.3c-0.5,0.3-1.1,0.3-1.5,0l-10.4-6.9c-0.3-0.2-0.4-0.6-0.2-0.8c0-0.1,0.1-0.1,0.2-0.2
	l11.1-6c0.5-0.3,1.2-0.3,1.7,0.1l9.8,6.4c0.3,0.2,0.4,0.7,0.2,1C360.4,481.4,360.3,481.4,360.3,481.5z"/>
<path class="st23" d="M376.1,472.7l-10.8,6.3c-0.5,0.3-1.1,0.3-1.5,0l-10.4-6.9c-0.3-0.2-0.3-0.6-0.1-0.8c0-0.1,0.1-0.1,0.2-0.2
	l11.1-6.1c0.5-0.3,1.2-0.3,1.7,0.1l9.8,6.4c0.3,0.2,0.3,0.7,0.1,1C376.2,472.6,376.2,472.7,376.1,472.7z"/>
<path class="st23" d="M392.1,464.3l-10.8,6.3c-0.5,0.3-1.1,0.3-1.5,0l-10.4-6.9c-0.3-0.2-0.4-0.6-0.2-0.8c0-0.1,0.1-0.1,0.2-0.2
	l11.1-6c0.5-0.3,1.2-0.3,1.7,0.1l9.8,6.4c0.3,0.2,0.4,0.7,0.2,1C392.2,464.2,392.1,464.3,392.1,464.3z"/>
<path class="st23" d="M407.7,455.9l-10.7,6.3c-0.5,0.3-1.1,0.3-1.5,0l-10.4-6.9c-0.3-0.2-0.4-0.6-0.2-0.8c0-0.1,0.1-0.1,0.2-0.2
	l11.1-6c0.5-0.3,1.2-0.3,1.7,0.1l9.8,6.4c0.3,0.2,0.4,0.7,0.1,1C407.8,455.8,407.8,455.9,407.7,455.9z"/>
<path class="st23" d="M438.6,438.6l-10.8,6.3c-0.5,0.3-1.1,0.3-1.5,0l-10.4-6.9c-0.3-0.2-0.4-0.6-0.2-0.8c0-0.1,0.1-0.1,0.2-0.2
	l11.1-6c0.5-0.3,1.2-0.3,1.7,0.1l9.8,6.4c0.3,0.2,0.4,0.7,0.2,1C438.7,438.5,438.6,438.6,438.6,438.6z"/>
<path class="st23" d="M423.5,447l-10.8,6.3c-0.5,0.3-1.1,0.3-1.5,0l-10.4-6.9c-0.3-0.2-0.4-0.6-0.2-0.8c0-0.1,0.1-0.1,0.2-0.2
	l11.2-6.1c0.5-0.3,1.2-0.3,1.7,0.1l9.8,6.4c0.3,0.2,0.4,0.7,0.2,1C423.7,446.9,423.6,447,423.5,447z"/>
<path class="st23" d="M446.8,451.9l-10.8,6.3c-0.5,0.3-1.1,0.3-1.5,0l-10.4-6.9c-0.3-0.2-0.4-0.6-0.2-0.8c0-0.1,0.1-0.1,0.2-0.2
	l11.1-6c0.5-0.3,1.2-0.3,1.7,0.1l9.8,6.4C447.1,451.1,447.1,451.5,446.8,451.9C446.8,451.8,446.8,451.9,446.8,451.9z"/>
<path class="st23" d="M465.2,459.4l-10.8,6.3c-0.5,0.3-1.1,0.3-1.5,0l-10.4-6.9c-0.3-0.2-0.3-0.6-0.2-0.8c0-0.1,0.1-0.1,0.2-0.2
	l11.1-6c0.5-0.3,1.2-0.3,1.7,0.1l9.8,6.4c0.3,0.2,0.4,0.7,0.1,1C465.3,459.3,465.2,459.4,465.2,459.4z"/>
<path class="st23" d="M481.2,450.3l-10.8,6.3c-0.5,0.3-1.1,0.3-1.5,0l-10.4-6.9c-0.3-0.2-0.4-0.6-0.2-0.8c0-0.1,0.1-0.1,0.2-0.2
	l11.1-6c0.5-0.3,1.2-0.3,1.7,0.1l9.8,6.4c0.3,0.2,0.4,0.7,0.2,1C481.3,450.3,481.2,450.3,481.2,450.3z"/>
<path class="st23" d="M497,442.1l-10.8,6.3c-0.5,0.3-1.1,0.3-1.5,0l-10.4-6.9c-0.3-0.2-0.4-0.6-0.2-0.8c0-0.1,0.1-0.1,0.2-0.2
	l11.1-6c0.5-0.3,1.2-0.3,1.7,0.1l9.8,6.4c0.3,0.2,0.4,0.7,0.1,1C497.1,442,497.1,442,497,442.1z"/>
<path class="st23" d="M430.7,460.6l-10.8,6.4c-0.5,0.3-1.1,0.3-1.5,0l-10.4-6.9c-0.3-0.2-0.4-0.6-0.2-0.8c0-0.1,0.1-0.1,0.2-0.2
	l11.2-6.1c0.5-0.3,1.2-0.3,1.7,0.1l9.8,6.4c0.3,0.2,0.4,0.6,0.2,1C430.8,460.5,430.8,460.6,430.7,460.6z"/>
<path class="st23" d="M449.3,468l-10.8,6.3c-0.5,0.3-1.1,0.3-1.5,0l-10.4-6.9c-0.3-0.2-0.4-0.6-0.2-0.8c0-0.1,0.1-0.1,0.2-0.2
	l11.1-6c0.5-0.3,1.2-0.3,1.7,0.1l9.8,6.4c0.3,0.2,0.4,0.7,0.1,1C449.4,467.9,449.3,468,449.3,468z"/>
<path class="st23" d="M336.5,512.1l-10.8,6.3c-0.5,0.3-1.1,0.3-1.5,0l-10.4-6.9c-0.3-0.2-0.3-0.6-0.1-0.8c0-0.1,0.1-0.1,0.2-0.2
	l11.1-6c0.5-0.3,1.2-0.3,1.7,0.1l9.8,6.4c0.3,0.2,0.3,0.7,0.1,1C336.6,512,336.5,512.1,336.5,512.1z"/>
<path class="st23" d="M367.7,494.9l-10.7,6.3c-0.5,0.3-1.1,0.3-1.5,0l-10.4-6.9c-0.3-0.2-0.3-0.6-0.2-0.8c0-0.1,0.1-0.1,0.2-0.2
	l11.1-6c0.5-0.3,1.2-0.3,1.7,0.1l9.8,6.4c0.3,0.2,0.3,0.7,0.1,1C367.8,494.8,367.8,494.9,367.7,494.9z"/>
<path class="st23" d="M351.8,503.5l-10.8,6.3c-0.5,0.3-1.1,0.3-1.5,0l-10.4-6.9c-0.3-0.2-0.3-0.6-0.1-0.8c0-0.1,0.1-0.1,0.2-0.2
	l11.1-6c0.6-0.3,1.2-0.3,1.8,0l9.8,6.4c0.3,0.2,0.4,0.7,0.1,1C351.9,503.4,351.8,503.5,351.8,503.5z"/>
<path class="st23" d="M383.8,486l-10.8,6.4c-0.5,0.3-1.1,0.3-1.5,0l-10.4-6.9c-0.3-0.2-0.3-0.6-0.1-0.8c0-0.1,0.1-0.1,0.2-0.2
	l11.1-6c0.5-0.3,1.2-0.3,1.7,0.1l9.8,6.4c0.3,0.2,0.3,0.7,0.1,1C383.8,485.9,383.8,486,383.8,486z"/>
<path class="st23" d="M399.6,477.8l-10.8,6.3c-0.5,0.3-1.1,0.3-1.5,0l-10.4-6.9c-0.3-0.2-0.3-0.6-0.1-0.8c0-0.1,0.1-0.1,0.2-0.2
	l11.1-6c0.5-0.3,1.2-0.3,1.7,0.1l9.8,6.4c0.3,0.2,0.3,0.7,0.1,1C399.7,477.8,399.6,477.8,399.6,477.8z"/>
<path class="st23" d="M415.6,469.3l-10.8,6.3c-0.5,0.3-1.1,0.3-1.5,0l-10.4-6.9c-0.3-0.2-0.3-0.6-0.1-0.8c0-0.1,0.1-0.1,0.2-0.2
	l11.1-6.1c0.5-0.3,1.2-0.3,1.7,0.1l9.8,6.4c0.3,0.2,0.3,0.7,0.1,1C415.7,469.2,415.6,469.3,415.6,469.3z"/>
<path class="st23" d="M210.1,511.1l-11.6,6.6c-0.2,0.1-0.5,0.1-0.7,0l-6.1-4.2c-0.3-0.2-0.4-0.6-0.2-0.9c0.1-0.1,0.1-0.2,0.2-0.2
	l11.7-6.4c0.2-0.1,0.4-0.1,0.6,0l6.1,4c0.3,0.2,0.4,0.5,0.3,0.9C210.3,510.9,210.2,511,210.1,511.1z"/>
<path class="st23" d="M225.4,502.4l-11.6,6.6c-0.2,0.1-0.5,0.1-0.7,0l-6.1-4.2c-0.3-0.2-0.4-0.6-0.2-0.9c0.1-0.1,0.1-0.2,0.2-0.2
	l11.7-6.4c0.2-0.1,0.4-0.1,0.6,0l6.1,4c0.3,0.2,0.3,0.6,0.1,0.9C225.5,502.3,225.4,502.4,225.4,502.4z"/>
<path class="st23" d="M241.4,494l-11.6,6.6c-0.2,0.1-0.5,0.1-0.7,0l-6.1-4.2c-0.3-0.2-0.4-0.6-0.1-0.9c0.1-0.1,0.1-0.1,0.2-0.2
	l11.7-6.4c0.2-0.1,0.4-0.1,0.6,0l6.1,4c0.3,0.2,0.4,0.6,0.2,0.9C241.5,493.9,241.4,493.9,241.4,494z"/>
<path class="st23" d="M256.5,485.8l-11.6,6.6c-0.2,0.1-0.5,0.1-0.7,0l-6.1-4.2c-0.3-0.2-0.4-0.6-0.2-0.9c0.1-0.1,0.1-0.2,0.2-0.2
	l11.7-6.4c0.2-0.1,0.4-0.1,0.6,0l6.1,4c0.3,0.2,0.4,0.6,0.2,0.9C256.7,485.6,256.6,485.7,256.5,485.8z"/>
<path class="st23" d="M272.3,477.5l-11.6,6.6c-0.2,0.1-0.5,0.1-0.7,0l-6.1-4.2c-0.3-0.2-0.4-0.6-0.2-0.9c0.1-0.1,0.1-0.2,0.2-0.2
	l11.7-6.4c0.2-0.1,0.4-0.1,0.6,0l6.1,4c0.3,0.2,0.4,0.6,0.2,0.9C272.4,477.3,272.3,477.4,272.3,477.5z"/>
<path class="st23" d="M288.5,468.4l-11.6,6.6c-0.2,0.1-0.5,0.1-0.7,0l-6.1-4.2c-0.3-0.2-0.4-0.6-0.2-0.9c0.1-0.1,0.1-0.1,0.2-0.2
	l11.7-6.4c0.2-0.1,0.4-0.1,0.6,0l6.1,4c0.3,0.2,0.4,0.5,0.3,0.8C288.8,468.2,288.7,468.3,288.5,468.4z"/>
<path class="st23" d="M304.1,460l-11.6,6.6c-0.2,0.1-0.5,0.1-0.7,0l-6.1-4.2c-0.3-0.2-0.4-0.6-0.2-0.9c0.1-0.1,0.1-0.2,0.2-0.2
	l11.7-6.4c0.2-0.1,0.4-0.1,0.6,0l6.1,4c0.3,0.2,0.4,0.6,0.2,0.9C304.2,459.9,304.2,460,304.1,460z"/>
<path class="st23" d="M320,451.2l-11.6,6.6c-0.2,0.1-0.5,0.1-0.7,0l-6.1-4.2c-0.3-0.2-0.4-0.6-0.2-0.9c0.1-0.1,0.1-0.1,0.2-0.2
	l11.7-6.4c0.2-0.1,0.4-0.1,0.6,0l6.1,4c0.3,0.2,0.4,0.6,0.2,0.9C320.2,451.1,320.1,451.2,320,451.2z"/>
<path class="st23" d="M336,442.3l-11.6,6.6c-0.2,0.1-0.5,0.1-0.7,0l-6.1-4.2c-0.3-0.2-0.4-0.6-0.2-0.9c0.1-0.1,0.1-0.2,0.2-0.2
	l11.7-6.4c0.2-0.1,0.4-0.1,0.6,0l6.1,4c0.3,0.2,0.3,0.6,0.1,0.9C336.1,442.2,336.1,442.3,336,442.3z"/>
<path class="st23" d="M351.6,433.9l-11.6,6.6c-0.2,0.1-0.5,0.1-0.7,0l-6.1-4.2c-0.3-0.2-0.4-0.6-0.2-0.9c0-0.1,0.1-0.1,0.2-0.2
	l11.7-6.4c0.2-0.1,0.4-0.1,0.6,0l6.1,4c0.3,0.2,0.4,0.6,0.2,0.9C351.7,433.8,351.7,433.8,351.6,433.9z"/>
<path class="st23" d="M367.1,425.7l-11.6,6.6c-0.2,0.1-0.5,0.1-0.7,0l-6.1-4.2c-0.3-0.2-0.4-0.6-0.1-0.9c0.1-0.1,0.1-0.1,0.2-0.2
	l11.7-6.4c0.2-0.1,0.4-0.1,0.6,0l6.1,4c0.3,0.2,0.4,0.6,0.2,0.9C367.3,425.6,367.2,425.6,367.1,425.7z"/>
<path class="st23" d="M382.6,416.7l-11.6,6.6c-0.2,0.1-0.5,0.1-0.7,0l-6.1-4.2c-0.3-0.2-0.4-0.6-0.2-0.9c0.1-0.1,0.1-0.2,0.2-0.2
	l11.8-6.4c0.2-0.1,0.4-0.1,0.6,0l6.1,4c0.3,0.2,0.3,0.6,0.1,0.9C382.8,416.6,382.7,416.7,382.6,416.7z"/>
<path class="st23" d="M399.2,408l-11.6,6.6c-0.2,0.1-0.5,0.1-0.7,0l-6.1-4.2c-0.3-0.2-0.4-0.6-0.2-0.9c0.1-0.1,0.1-0.1,0.2-0.2
	l11.7-6.4c0.2-0.1,0.4-0.1,0.6,0l6.1,4c0.3,0.2,0.4,0.6,0.2,0.9C399.3,407.9,399.3,407.9,399.2,408z"/>
<path class="st23" d="M418.2,397.2l-11.6,6.6c-0.2,0.1-0.5,0.1-0.7,0l-6.1-4.2c-0.3-0.2-0.4-0.6-0.2-0.9c0.1-0.1,0.1-0.2,0.2-0.2
	l11.7-6.4c0.2-0.1,0.4-0.1,0.6,0l6.1,4c0.3,0.2,0.3,0.6,0.1,0.9C418.3,397.1,418.3,397.2,418.2,397.2z"/>
<path class="st23" d="M434.8,406.1l-16,9.2c-0.6,0.3-1.3,0.3-1.8,0l-8.7-5.8c-0.8-0.5-1-1.6-0.5-2.4c0.1-0.2,0.3-0.4,0.6-0.5l16-9.2
	c0.6-0.3,1.3-0.3,1.8,0.1l8.7,5.8c0.8,0.5,1,1.6,0.5,2.4C435.2,405.8,435,406,434.8,406.1z"/>
<path class="st23" d="M465.7,423.4l-21.6,12.5c-0.3,0.2-0.7,0.2-1,0l-10.1-6.7c-0.4-0.3-0.5-1-0.2-1.4c0.1-0.1,0.2-0.2,0.3-0.3
	l21.5-12.4c0.3-0.2,0.7-0.2,1,0l10.2,6.5c0.4,0.3,0.5,1,0.2,1.4C465.9,423.2,465.8,423.3,465.7,423.4z"/>
<path class="st23" d="M480,433.5l-28.2,15.8c-0.6,0.3-1.4,0.3-2-0.1l-8.3-5.5c-0.9-0.6-1.1-1.9-0.5-2.8c0.2-0.2,0.3-0.4,0.6-0.5
	l28.1-15.9c0.6-0.4,1.4-0.3,2.1,0.1l8.4,5.7c0.9,0.7,1.1,1.9,0.4,2.8C480.4,433.1,480.2,433.3,480,433.5z"/>
<path class="st23" d="M263.7,534.1l-21.8,12.2c-0.3,0.2-0.7,0.2-1,0l-10-6.9c-0.4-0.3-0.5-1-0.2-1.4c0.1-0.1,0.2-0.2,0.3-0.2
	l21.8-12c0.3-0.2,0.7-0.2,1,0l10.1,6.7c0.4,0.3,0.5,1,0.1,1.4C263.9,534,263.8,534.1,263.7,534.1z"/>
<path class="st23" d="M284.6,539.7l-27.9,16.5c-0.4,0.2-0.9,0.2-1.3-0.1l-9.5-6.7c-0.5-0.4-0.6-1.1-0.3-1.7c0.1-0.1,0.2-0.2,0.4-0.3
	l28.6-16.2c0.4-0.2,0.9-0.2,1.3,0.1l8.8,6.3c0.5,0.4,0.6,1.2,0.2,1.7C284.8,539.5,284.7,539.6,284.6,539.7z"/>
<path class="st23" d="M296.6,552l-25.2,14.7c-0.3,0.2-0.7,0.2-1-0.1l-9.1-6.9c-0.4-0.3-0.5-0.9-0.2-1.3c0.1-0.1,0.2-0.2,0.3-0.2
	l25.2-14.3c0.3-0.2,0.7-0.2,1,0.1l9.1,6.4c0.4,0.3,0.5,0.9,0.2,1.3C296.8,551.9,296.7,552,296.6,552z"/>
<path class="st23" d="M334.8,530.6l-13.6,8c-0.4,0.3-0.9,0.3-1.4,0l-9.6-6.4c-0.6-0.4-0.8-1.2-0.4-1.8c0.1-0.2,0.2-0.3,0.4-0.4
	l13.5-8.3c0.4-0.3,1-0.3,1.4,0l9.7,6.7c0.6,0.4,0.7,1.2,0.3,1.8C335.1,530.4,335,530.5,334.8,530.6z"/>
<path class="st23" d="M432.8,477.4l-13.6,8c-0.4,0.3-0.9,0.3-1.4,0l-9.6-6.4c-0.6-0.4-0.8-1.2-0.4-1.8c0.1-0.2,0.2-0.3,0.4-0.4
	l13.6-8.3c0.4-0.3,1-0.3,1.4,0l9.7,6.7c0.6,0.4,0.8,1.2,0.4,1.8C433.1,477.2,433,477.3,432.8,477.4z"/>
<path class="st23" d="M243.2,528.4l-15.7,9c-0.4,0.2-0.9,0.2-1.3,0l-9.6-6.7c-0.5-0.4-0.7-1.1-0.3-1.7c0.1-0.1,0.2-0.3,0.4-0.3
	l15.3-8.9c0.4-0.2,0.9-0.2,1.3,0l10.1,6.6c0.5,0.4,0.7,1.1,0.3,1.6C243.5,528.2,243.4,528.3,243.2,528.4z"/>
<linearGradient id="SVGID_6_" gradientUnits="userSpaceOnUse" x1="600.495" y1="336.7256" x2="600.495" y2="395.26" gradientTransform="matrix(1 0 0 -1 0 900)">
	<stop  offset="0" style="stop-color:#ADB0B3"/>
	<stop  offset="0.98" style="stop-color:#FFFFFF;stop-opacity:0"/>
</linearGradient>
<path class="st24" d="M594.8,562.2c3.7,1.4,7.9,1.4,11.6,0c0.8-0.2,1.4-0.9,1.4-1.8l-0.2-54c0-0.8-2.1-1.7-4.7-1.7h-5.1
	c-2.6,0-4.6,0.9-4.6,2v54C593.2,561.3,593.8,561.8,594.8,562.2z"/>
<path class="st4" d="M1597.5,1.1c0,0-130.8,47-132.2,162.3s97,228.1,42.2,347.5c-44.4,96.6-168.8,36.9-214.7,10.6
	c-10.2-5.9-18.8-13.9-25.2-23.6c-22.2-33.5-88.5-113-162.3-4.5c-72.6,106.8-134.3,60.7-156.1,38.1c-7.4-7.7-17.8-12.4-28.7-12.8
	c-28.2-1.2-112.9,80.1-88.4,165.3c34.5,120.1-157,214.7-157,214.7h922.6V1.1z"/>
<path class="st25" d="M1598.8,898.7l-2.5-288.2c0,0-175.4-37.2-186.5,0c-11,37.2,85.6,21.5,78,67.8c-7.6,46.3-271.2-69.4-283.1-1.7
	c-11.9,67.8,61,30.6,69.5,79.3s-131.4,141.3-174.6,142.2C1056.4,898.9,1598.8,898.7,1598.8,898.7z"/>
<g>
	<path class="st4" d="M971.2,234.8c8.9,0,15.5,5,17.6,13h-10c-1.5-3.2-4.3-4.8-7.8-4.8c-5.6,0-9.4,4.1-9.4,10.7
		c0,6.6,3.8,10.7,9.4,10.7c3.4,0,6.3-1.6,7.8-4.8h10c-2.1,8.1-8.8,13-17.6,13c-11,0-18.7-7.8-18.7-18.9
		C952.5,242.7,960.2,234.8,971.2,234.8z"/>
	<path class="st4" d="M1009.6,235.3c9.1,0,13.7,5.2,13.7,11.7c0,4.7-2.5,9.1-8.3,10.8l8.6,14.7h-10.2l-7.7-14h-2.2v14h-9.1v-37.2
		H1009.6z M1009.1,242.8h-5.6v9.2h5.6c3.4,0,5-1.8,5-4.7C1014.1,244.6,1012.5,242.8,1009.1,242.8z"/>
	<path class="st4" d="M1051.8,242.5h-13.7v7.5h12.1v7h-12.1v8.2h13.7v7.3H1029v-37.2h22.8V242.5z"/>
	<path class="st4" d="M1080.8,265.9H1067l-2.2,6.6h-9.5l13.5-37.2h10.5l13.5,37.2h-9.6L1080.8,265.9z M1073.9,245.3l-4.6,13.6h9.2
		L1073.9,245.3z"/>
	<path class="st4" d="M1130.2,253.9c0,11-7.6,18.6-19.5,18.6h-13.9v-37.2h13.9C1122.6,235.3,1130.2,242.8,1130.2,253.9z
		 M1110.1,264.6c6.8,0,10.9-3.9,10.9-10.8c0-6.8-4-10.9-10.9-10.9h-4.3v21.6H1110.1z"/>
	<path class="st4" d="M1152.9,272.8c-10.5,0-19.1-7.9-19.1-19.1c0-11.2,8.6-19,19.1-19c10.6,0,19,7.8,19,19
		C1171.9,264.9,1163.5,272.8,1152.9,272.8z M1152.9,264.6c5.9,0,9.8-4.3,9.8-10.8c0-6.6-3.9-10.8-9.8-10.8c-6,0-9.9,4.2-9.9,10.8
		C1143.1,260.3,1146.9,264.6,1152.9,264.6z"/>
	<path class="st4" d="M1192.2,235.3c9.1,0,13.7,5.2,13.7,11.7c0,4.7-2.5,9.1-8.3,10.8l8.6,14.7H1196l-7.7-14h-2.2v14h-9.1v-37.2
		H1192.2z M1191.7,242.8h-5.6v9.2h5.6c3.4,0,5-1.8,5-4.7C1196.7,244.6,1195.1,242.8,1191.7,242.8z"/>
	<path class="st4" d="M1234.4,242.5h-13.7v7.5h12.1v7h-12.1v8.2h13.7v7.3h-22.8v-37.2h22.8V242.5z"/>
	<path class="st4" d="M1253.7,272.8c-8,0-14.3-4-14.5-11.5h9.6c0.3,2.9,2.1,4.2,4.6,4.2c2.7,0,4.4-1.3,4.4-3.5
		c0-6.9-18.6-3.2-18.5-16.4c0-7,5.8-11,13.6-11c8.1,0,13.6,4,13.9,11.1h-9.8c-0.2-2.4-1.9-3.8-4.3-3.9c-2.2-0.1-3.8,1.1-3.8,3.4
		c0,6.5,18.4,3.5,18.4,16C1267.3,267.7,1262.4,272.8,1253.7,272.8z"/>
</g>
<g>
	<path d="M1323.4,253c0,10.7-7.4,18-18.9,18h-13.5v-36h13.5C1316,235,1323.4,242.3,1323.4,253z M1304,263.4
		c6.6,0,10.5-3.8,10.5-10.4c0-6.6-3.9-10.5-10.5-10.5h-4.1v20.9H1304z"/>
	<path d="M1350.4,242h-13.3v7.3h11.7v6.8h-11.7v7.9h13.3v7h-22v-36h22V242z"/>
</g>
<g>
	<path class="st4" d="M1034.4,295h7v17.1c0,3.4,1.7,5.3,5,5.3s5.1-2,5.1-5.3V295h7v17.1c0,7.9-5.5,11.8-12.2,11.8
		c-6.7,0-11.8-3.9-11.8-11.8V295z"/>
	<path class="st4" d="M1088.9,295v28.6h-7l-11.7-17.7v17.7h-7V295h7l11.7,17.8V295H1088.9z"/>
	<path class="st4" d="M1111.9,318.6h-10.7l-1.7,5.1h-7.3l10.4-28.6h8.1l10.4,28.6h-7.4L1111.9,318.6z M1106.5,302.7l-3.5,10.5h7.1
		L1106.5,302.7z"/>
</g>
<g>
	<path d="M1166,295.7v27.8h-6.8l-11.3-17.1v17.1h-6.8v-27.8h6.8l11.3,17.2v-17.2H1166z"/>
	<path d="M1170.8,295.7h6.8v16.6c0,3.3,1.6,5.2,4.8,5.2c3.2,0,4.9-1.9,4.9-5.2v-16.6h6.8v16.6c0,7.7-5.4,11.5-11.8,11.5
		c-6.5,0-11.5-3.8-11.5-11.5V295.7z"/>
	<path d="M1215.9,301.1h-10.2v5.6h9.1v5.2h-9.1v6.1h10.2v5.4h-17v-27.8h17V301.1z"/>
	<path d="M1239.2,295.7h7.2l-9.9,27.8h-8.5l-9.9-27.8h7.2l6.9,21L1239.2,295.7z"/>
	<path d="M1266.5,318.6h-10.4l-1.7,4.9h-7.1l10.1-27.8h7.8l10.1,27.8h-7.2L1266.5,318.6z M1261.3,303.2l-3.4,10.2h6.8L1261.3,303.2z
		"/>
</g>
<g>
	<path d="M850.5,345.5c9.8,0,14.7,5.6,14.7,12.6c0,5-2.7,9.7-8.9,11.6l9.2,15.8h-11l-8.3-15.1h-2.3v15.1h-9.7v-40H850.5z
		 M849.9,353.6h-6v9.9h6c3.6,0,5.4-1.9,5.4-5C855.3,355.5,853.6,353.6,849.9,353.6z"/>
	<path d="M895.8,353.3h-14.8v8.1h13v7.5h-13v8.8h14.8v7.8h-24.5v-40h24.5V353.3z"/>
	<path d="M929.4,345.5h10.3l-14.2,40h-12.2l-14.2-40h10.4l9.9,30.2L929.4,345.5z"/>
	<path d="M962.7,385.9c-11.3,0-20.6-8.5-20.6-20.5c0-12,9.2-20.5,20.6-20.5c11.4,0,20.5,8.4,20.5,20.5
		C983.2,377.4,974,385.9,962.7,385.9z M962.7,377c6.4,0,10.5-4.6,10.5-11.6c0-7.1-4.2-11.6-10.5-11.6c-6.5,0-10.6,4.5-10.6,11.6
		C952.1,372.4,956.2,377,962.7,377z"/>
	<path d="M998.3,345.5V378h12.8v7.5h-22.5v-40H998.3z"/>
	<path d="M1015.6,345.5h9.7v23.9c0,4.7,2.3,7.5,6.9,7.5c4.6,0,7.1-2.7,7.1-7.5v-23.9h9.7v23.9c0,11.1-7.7,16.5-17,16.5
		c-9.3,0-16.5-5.5-16.5-16.5V345.5z"/>
	<path d="M1074.4,345c9.5,0,16.7,5.4,19,14h-10.7c-1.7-3.4-4.7-5.1-8.4-5.1c-6,0-10.1,4.4-10.1,11.5s4.1,11.5,10.1,11.5
		c3.7,0,6.7-1.7,8.4-5.1h10.7c-2.3,8.7-9.5,14-19,14c-11.8,0-20.1-8.4-20.1-20.3S1062.6,345,1074.4,345z"/>
	<path d="M1099.4,345.5h9.7v40h-9.7V345.5z"/>
	<path d="M1135.1,385.9c-11.3,0-20.6-8.5-20.6-20.5c0-12,9.2-20.5,20.6-20.5c11.4,0,20.5,8.4,20.5,20.5
		C1155.6,377.4,1146.5,385.9,1135.1,385.9z M1135.1,377c6.4,0,10.5-4.6,10.5-11.6c0-7.1-4.2-11.6-10.5-11.6
		c-6.5,0-10.6,4.5-10.6,11.6C1124.5,372.4,1128.6,377,1135.1,377z M1141.7,329.9v7.6l-13.7,5.8v-6.7L1141.7,329.9z"/>
	<path d="M1196.8,345.5v40h-9.7l-16.3-24.7v24.7h-9.7v-40h9.7l16.3,24.8v-24.8H1196.8z"/>
</g>
<g>
	<path class="st4" d="M1257.8,365.7c0,11.7-8.1,19.8-20.8,19.8h-14.8v-39.6h14.8C1249.6,345.9,1257.8,353.9,1257.8,365.7z
		 M1236.4,377.1c7.3,0,11.6-4.2,11.6-11.5c0-7.3-4.3-11.6-11.6-11.6h-4.6v23H1236.4z"/>
	<path class="st4" d="M1263.2,345.9h9.7v39.6h-9.7V345.9z"/>
	<path class="st4" d="M1316.8,358.4h-10.7c-1.5-2.7-4.2-4.1-7.8-4.1c-6.2,0-10.3,4.4-10.3,11.3c0,7.3,4.2,11.6,11.1,11.6
		c4.8,0,8.1-2.5,9.6-7h-12.2v-7.1h21v9c-2,6.8-8.6,13.7-19.1,13.7c-11.9,0-20.2-8.3-20.2-20.1c0-11.9,8.3-20.2,20.2-20.2
		C1307.9,345.4,1314.7,350.3,1316.8,358.4z"/>
	<path class="st4" d="M1322.9,345.9h9.7v39.6h-9.7V345.9z"/>
	<path class="st4" d="M1337.4,345.9h30.6v7.7h-10.5v31.9h-9.7v-31.9h-10.5V345.9z"/>
	<path class="st4" d="M1397.6,378.5h-14.8l-2.4,7h-10.1l14.3-39.6h11.2l14.3,39.6H1400L1397.6,378.5z M1390.2,356.5l-4.9,14.5h9.8
		L1390.2,356.5z"/>
	<path class="st4" d="M1424.2,345.9V378h12.6v7.4h-22.3v-39.6H1424.2z"/>
</g>
</svg>
