<svg xmlns="http://www.w3.org/2000/svg" viewBox="0 0 1598.41 897.57"><defs><style>.cls-1{fill:#fff;}.cls-2{fill:#ff4d14;}.cls-3{fill:#af3215;}</style></defs><title>R2</title><g id="Capa_2" data-name="Capa 2"><g id="Capa_1-2" data-name="Capa 1"><rect class="cls-1" y="0.8" width="1597.09" height="896.77"/><path class="cls-2" d="M1597.09,897.57s-130.79-47-132.2-162.34,97-228.07,42.19-347.48c-44.37-96.59-168.82-36.89-214.74-10.57a75,75,0,0,0-25.2,23.56c-22.22,33.52-88.53,113-162.28,4.46-72.57-106.8-134.34-60.75-156.14-38.06A42.48,42.48,0,0,1,920,380c-28.17,1.23-112.88-80.15-88.45-165.28C866,94.61,674.51,0,674.51,0h922.58Z"/><path class="cls-3" d="M1598.41,0l-2.54,288.23s-175.45,37.19-186.47,0,85.61-21.49,78-67.78-271.22,69.43-283.09,1.66,61-30.58,69.5-79.35S1142.42,1.46,1099.19.63,1598.41,0,1598.41,0Z"/></g></g></svg>