<svg xmlns="http://www.w3.org/2000/svg" viewBox="0 0 924.78 293.57"><defs><style>.cls-1{fill:#c65133;}</style></defs><title>Recurso 4</title><g id="Capa_2" data-name="Capa 2"><g id="Capa_1-2" data-name="Capa 1"><path d="M88.47,194.12H12.07A12.06,12.06,0,0,1,0,182.05V62.12A12.06,12.06,0,0,1,12.07,50.06h80c28.42,0,41.29,12.69,41.29,36.1,0,9.71-1.48,16.82-7,23.26a11.89,11.89,0,0,0,.57,15.79c6.08,6.46,8.17,14.49,8.17,25.48C135.12,180.18,119.93,194.12,88.47,194.12ZM81.41,83.48H52.82A12.06,12.06,0,0,0,40.75,95.55h0a12.06,12.06,0,0,0,12.07,12.06H81.41A12.06,12.06,0,0,0,93.48,95.55h0A12.06,12.06,0,0,0,81.41,83.48Zm1.79,53.09H52.82a12.06,12.06,0,0,0-12.07,12.06v.18a12.06,12.06,0,0,0,12.07,12.06H83.2a12.07,12.07,0,0,0,12.07-12.06v-.18A12.07,12.07,0,0,0,83.2,136.57Z"/><path d="M284.77,51.1H271.93a17.84,17.84,0,0,0-17.84,17.84v71.4a17.85,17.85,0,0,1-17.85,17.85h-14.7a17.85,17.85,0,0,1-17.85-17.85V68.94A17.85,17.85,0,0,0,185.84,51.1H173a17.85,17.85,0,0,0-17.85,17.84v65.45c0,45.5,17.73,59.73,63.93,59.73h65.68a17.85,17.85,0,0,0,17.85-17.85V68.94A17.85,17.85,0,0,0,284.77,51.1Z"/><path d="M456.9,194.12H412.55a11.63,11.63,0,0,1-10.87-7.49L385,142.89c-4.59-12.07-22.49-8.77-22.49,4.14v35.46a11.63,11.63,0,0,1-11.62,11.63H336.09a11.63,11.63,0,0,1-11.63-11.63V61.68a11.63,11.63,0,0,1,11.63-11.62H380.6a11.61,11.61,0,0,1,10.87,7.5L408,101c4.58,12.08,22.49,8.8,22.49-4.12V61.68a11.63,11.63,0,0,1,11.63-11.62H456.9a11.62,11.62,0,0,1,11.62,11.62V182.49A11.63,11.63,0,0,1,456.9,194.12Z"/><path d="M564.87,183.19V160.72a10.93,10.93,0,0,0-19.49-6.81L516.67,190a10.91,10.91,0,0,1-8.55,4.13H488.48a10.94,10.94,0,0,1-8.57-17.73L520.67,125a10.93,10.93,0,0,0-.24-13.89l-36.71-43a10.93,10.93,0,0,1,8.32-18h17.19a11,11,0,0,1,8.33,3.85l28,33a10.94,10.94,0,0,0,19.27-7.08V61A10.93,10.93,0,0,1,575.8,50.06h18.89A10.93,10.93,0,0,1,605.62,61v122.2a10.94,10.94,0,0,1-10.93,10.93H575.8A10.93,10.93,0,0,1,564.87,183.19Z"/><path d="M662.48,146.68h0a10,10,0,0,0,10,10h79.06a10,10,0,0,1,10,10v17.51a10,10,0,0,1-10,10h-70.3c-48.17,0-66.66-14.84-66.66-62.28v-27c0-47.69,18.49-61.07,66.66-61.07H697c48.17,0,66.66,14.84,66.66,62.28v20.68a10,10,0,0,1-10,10H672.45A10,10,0,0,0,662.48,146.68Zm0-56.44v3.65a10,10,0,0,0,10,10h33.33a10,10,0,0,0,10-10V90.24a10,10,0,0,0-10-10H672.45A10,10,0,0,0,662.48,90.24Z"/><path d="M877,180.53V157.3a13.59,13.59,0,0,0-13.58-13.59H837.69A13.6,13.6,0,0,0,824.1,157.3v23.23a13.58,13.58,0,0,1-13.58,13.59H796.94a13.58,13.58,0,0,1-13.59-13.59V63.64a13.58,13.58,0,0,1,13.59-13.58h75.78c33.42,0,45.4,12.15,45.4,41.46,0,10.45-2.35,17.15-6.75,22.1a13.16,13.16,0,0,0,.29,17.66c7.09,7.87,6.28,18,6.28,31.56v17.69a13.58,13.58,0,0,1-13.58,13.59H890.59A13.58,13.58,0,0,1,877,180.53Zm-13.58-97H837.69A13.59,13.59,0,0,0,824.1,97.06h0a13.59,13.59,0,0,0,13.59,13.59h25.74A13.58,13.58,0,0,0,877,97.06h0A13.58,13.58,0,0,0,863.43,83.48Z"/><path d="M219.22,35.7h27a7.05,7.05,0,0,0,5.46-2.6l17.55-21.66A7,7,0,0,0,263.78,0H233.51a7,7,0,0,0-5.85,3.15l-14.3,21.66A7,7,0,0,0,219.22,35.7Z"/><path class="cls-1" d="M484.68,84.87l28,32.7a3.24,3.24,0,0,1,0,4.26l-28,31.32A3.23,3.23,0,0,1,479,151V87A3.24,3.24,0,0,1,484.68,84.87Z"/><path d="M577.15,284.18h-5.59l-2.22-8.86H556.75l-2.23,8.86H549.1v-.1l11.29-39.83h5.55Zm-8.54-12-5.55-21.58-5.58,21.58Z"/><path d="M606.48,290.7q0,2.87-4.57,2.87H589.12q-4.65,0-4.65-3.64c0-.29,0-.72.06-1.28s.06-1,.06-1.24h5.3v3.29h11.25v-6.52h-8.86a11,11,0,0,1-6-1.52,4.42,4.42,0,0,1-2.39-3.8V264.38a4.36,4.36,0,0,1,2.11-3.66,9.55,9.55,0,0,1,5.54-1.46q.93,0,9.59.84v-.68h5.34Zm-5.34-9.5V262.49q-6.39-.25-7.44-.25-4.46,0-4.45,2.85v13.26q0,2.85,4.45,2.85Z"/><path d="M637.36,281.3q0,2.88-4.53,2.88h-13q-4.53,0-4.53-2.88v-19c0-1.92,1.51-2.87,4.53-2.87h13c3,0,4.53.95,4.53,2.87v8.91l-1.82,1.2h-15v9h11.57v-4.54h5.22Zm-5.22-11.6v-7.46H620.57v7.46Z"/><path d="M668.89,284.18h-5.38V262.44l-11.86.21v21.53h-5.38V259.42h5.38v.68l6.35-.53c2.59-.21,4.73-.31,6.4-.31q4.49,0,4.49,2.78Z"/><path d="M699.44,281.3q0,2.88-4.53,2.88H682.12q-4.53,0-4.53-2.88v-19c0-1.92,1.51-2.87,4.53-2.87h12.79c3,0,4.53.95,4.53,2.87v4.94h-5.3v-4.84H683V281.2h11.17v-5.52h5.3Z"/><path d="M713.89,254h-5.46v-4.27h5.46Zm-.08,30.19h-5.3V259.42h5.3Z"/><path d="M745.22,284.18h-5.31v-.69q-3.2.28-6.39.54c-2.65.2-4.76.3-6.35.3-2.94,0-4.42-.91-4.42-2.75v-9q0-2.85,4.58-2.85H740v-7.46H728.42v4.22H723.2v-4.17c0-1.92,1.51-2.87,4.53-2.87h12.95c3,0,4.54.95,4.54,2.87ZM740,281.1v-8.76H728v8.91Z"/><path d="M797,277q0,3.15-3.3,5.18a15.66,15.66,0,0,1-8.32,2H770.91V244.35H785.4a15.63,15.63,0,0,1,8.34,2c2.18,1.35,3.28,3.08,3.28,5.18Zm-5.63-.36V251.85a3.6,3.6,0,0,0-2-3.16,9.53,9.53,0,0,0-5.08-1.21h-7.81v33.57H784a10.55,10.55,0,0,0,5.33-1.19A3.59,3.59,0,0,0,791.39,276.62Z"/><path d="M812,254h-5.46v-4.27H812Zm-.08,30.19h-5.3V259.42h5.3Z"/><path d="M843.39,290.7q0,2.87-4.57,2.87H826q-4.65,0-4.65-3.64c0-.29,0-.72.06-1.28s.06-1,.06-1.24h5.3v3.29h11.25v-6.52h-8.86a11,11,0,0,1-6-1.52,4.42,4.42,0,0,1-2.39-3.8V264.38a4.34,4.34,0,0,1,2.11-3.66,9.55,9.55,0,0,1,5.54-1.46q.93,0,9.59.84v-.68h5.34Zm-5.34-9.5V262.49q-6.39-.25-7.44-.25-4.46,0-4.46,2.85v13.26q0,2.85,4.46,2.85Z"/><path d="M858,254H852.5v-4.27H858Zm-.09,30.19h-5.3V259.42h5.3Z"/><path d="M881.19,284.18h-7.64q-4.54,0-4.54-2.88V262.39h-4.73v-3H869V251.7h5.31v7.72h6.87v3h-6.87V281.2h6.87Z"/><path d="M910.33,284.18H905v-.69q-3.19.28-6.39.54c-2.65.2-4.76.3-6.36.3-2.94,0-4.41-.91-4.41-2.75v-9c0-1.9,1.53-2.85,4.57-2.85h12.67v-7.46H893.54v4.22h-5.22v-4.17c0-1.92,1.51-2.87,4.53-2.87H905.8c3,0,4.53.95,4.53,2.87Zm-5.22-3.08v-8.76h-12v8.91Z"/><path d="M924.78,284.18h-5.3V244.35h5.3Z"/></g></g></svg>